<svg width="20" height="20" viewBox="0 0 20 20" fill="none" xmlns="http://www.w3.org/2000/svg">
<path fill-rule="evenodd" clip-rule="evenodd" d="M3.59319 5.43022L4.28207 16.7263C4.3355 17.5905 5.06695 18.2857 5.97941 18.2857H13.647C14.54 18.2857 15.2642 17.6192 15.3425 16.7764L16.3806 5.42855C14.4812 5.30707 11.95 5.17372 10 5.17372C8.04102 5.17372 5.49544 5.3083 3.59319 5.43022ZM18.0913 5.54554C18.2763 5.55902 18.4392 5.57117 18.5765 5.58157C18.7354 5.5936 18.8599 5.60329 18.9446 5.60995L19.073 5.62016C19.5449 5.65847 19.9588 5.30707 19.9971 4.83524C20.0355 4.3634 19.684 3.94984 19.2122 3.91153L19.0791 3.90094C18.9928 3.89415 18.8666 3.88434 18.7059 3.87217C18.3846 3.84784 17.9254 3.81406 17.3728 3.77622C15.4392 3.6438 12.3326 3.45943 10 3.45943C7.66741 3.45943 4.56077 3.6438 2.62718 3.77622C2.07463 3.81406 1.61541 3.84784 1.29409 3.87217C1.13341 3.88434 1.00717 3.89415 0.920945 3.90094L0.788461 3.91147C0.316629 3.94979 -0.0354636 4.3634 0.0028533 4.83524C0.04117 5.30707 0.454723 5.6585 0.926551 5.62019M0.926551 5.62019L1.05536 5.60995C1.14005 5.60329 1.26463 5.5936 1.42354 5.58157C1.55443 5.57166 1.70857 5.56015 1.88288 5.54742L2.57101 16.8313C2.68149 18.6229 4.18457 20 5.97941 20H13.647C15.4018 20 16.8878 18.6823 17.0495 16.9336L18.0913 5.54554" fill="#D3D3D3"/>
<path fill-rule="evenodd" clip-rule="evenodd" d="M8.4 1.71429C8.24221 1.71429 8.11429 1.84221 8.11429 2V3.8224C8.11429 4.29579 7.73054 4.67954 7.25715 4.67954C6.78377 4.67954 6.40001 4.29579 6.40001 3.8224V2C6.40001 0.895431 7.29544 0 8.4 0H11.6C12.7046 0 13.6 0.895433 13.6 2V3.8224C13.6 4.29579 13.2162 4.67954 12.7428 4.67954C12.2695 4.67954 11.8857 4.29579 11.8857 3.8224V2C11.8857 1.84221 11.7578 1.71429 11.6 1.71429H8.4Z" fill="#D3D3D3"/>
<path fill-rule="evenodd" clip-rule="evenodd" d="M5.48579 3.82242C5.48579 3.34903 5.86954 2.96528 6.34293 2.96528L8.17149 2.96528C8.64487 2.96528 9.02863 3.34903 9.02863 3.82242C9.02863 4.29581 8.64487 4.67956 8.17149 4.67956H6.34293C5.86954 4.67956 5.48579 4.29581 5.48579 3.82242Z" fill="#D3D3D3"/>
<path fill-rule="evenodd" clip-rule="evenodd" d="M10.9714 3.82242C10.9714 3.34903 11.3551 2.96528 11.8285 2.96528H13.6571C14.1305 2.96528 14.5142 3.34903 14.5142 3.82242C14.5142 4.29581 14.1305 4.67956 13.6571 4.67956H11.8285C11.3551 4.67956 10.9714 4.29581 10.9714 3.82242Z" fill="#D3D3D3"/>
<path fill-rule="evenodd" clip-rule="evenodd" d="M10 7.90738C10.4734 7.90738 10.8571 8.29114 10.8571 8.76452V14.695C10.8571 15.1684 10.4734 15.5522 10 15.5522C9.52661 15.5522 9.14286 15.1684 9.14286 14.695V8.76452C9.14286 8.29114 9.52661 7.90738 10 7.90738Z" fill="#D3D3D3"/>
<path fill-rule="evenodd" clip-rule="evenodd" d="M6.34293 8.89576C6.81631 8.89576 7.20007 9.27952 7.20007 9.7529V13.7066C7.20007 14.18 6.81631 14.5637 6.34293 14.5637C5.86954 14.5637 5.48579 14.18 5.48579 13.7066V9.7529C5.48579 9.27952 5.86954 8.89576 6.34293 8.89576Z" fill="#D3D3D3"/>
<path fill-rule="evenodd" clip-rule="evenodd" d="M13.6571 8.89576C14.1305 8.89576 14.5142 9.27952 14.5142 9.7529V13.7066C14.5142 14.18 14.1305 14.5637 13.6571 14.5637C13.1837 14.5637 12.7999 14.18 12.7999 13.7066V9.7529C12.7999 9.27952 13.1837 8.89576 13.6571 8.89576Z" fill="#D3D3D3"/>
</svg>
