<svg width="14" height="14" viewBox="0 0 14 14" fill="none" xmlns="http://www.w3.org/2000/svg">
<path d="M7.33333 0.333008C6.01479 0.333008 4.72586 0.724001 3.62953 1.45654C2.5332 2.18909 1.67872 3.23028 1.17414 4.44845C0.669553 5.66663 0.53753 7.00707 0.794765 8.30028C1.052 9.59348 1.68694 10.7814 2.61929 11.7137C3.55164 12.6461 4.73953 13.281 6.03273 13.5382C7.32594 13.7955 8.66638 13.6635 9.88456 13.1589C11.1027 12.6543 12.1439 11.7998 12.8765 10.7035C13.609 9.60715 14 8.31822 14 6.99967C14 6.1242 13.8276 5.25729 13.4925 4.44845C13.1575 3.63961 12.6664 2.90469 12.0474 2.28563C11.4283 1.66657 10.6934 1.17551 9.88456 0.840478C9.07572 0.505446 8.20881 0.333008 7.33333 0.333008ZM7.33333 12.333C6.2785 12.333 5.24735 12.0202 4.37029 11.4342C3.49323 10.8481 2.80964 10.0152 2.40598 9.04065C2.00231 8.06611 1.89669 6.99376 2.10248 5.95919C2.30827 4.92463 2.81622 3.97432 3.5621 3.22844C4.30798 2.48256 5.25829 1.97461 6.29285 1.76882C7.32742 1.56303 8.39977 1.66865 9.37431 2.07232C10.3489 2.47598 11.1818 3.15957 11.7678 4.03663C12.3539 4.9137 12.6667 5.94484 12.6667 6.99967C12.6667 8.41416 12.1048 9.77072 11.1046 10.7709C10.1044 11.7711 8.74782 12.333 7.33333 12.333ZM7.33333 2.99967C7.15652 2.99967 6.98695 3.06991 6.86193 3.19494C6.73691 3.31996 6.66667 3.48953 6.66667 3.66634V5.84634L5.93333 5.41967C5.77951 5.33127 5.59686 5.30759 5.42558 5.35385C5.2543 5.40011 5.10841 5.51252 5.02 5.66634C4.93159 5.82017 4.90792 6.00281 4.95418 6.17409C5.00044 6.34538 5.11284 6.49127 5.26667 6.57967L7 7.57967H7.04667H7.10667C7.17628 7.62219 7.25311 7.65156 7.33333 7.66634C7.41103 7.66412 7.48774 7.64833 7.56 7.61967H7.61333C7.68285 7.58936 7.74615 7.54641 7.8 7.49301C7.83654 7.45342 7.86998 7.41107 7.9 7.36634C7.9 7.36634 7.9 7.36634 7.9 7.32634C7.91631 7.28739 7.92968 7.24728 7.94 7.20634C7.94313 7.16195 7.94313 7.1174 7.94 7.07301C7.94 7.07301 7.94 7.07301 7.94 7.03301V3.66634C7.94068 3.49945 7.87873 3.33838 7.76641 3.21494C7.65408 3.09151 7.49955 3.01469 7.33333 2.99967Z" fill="#999999"/>
</svg>
