<svg width="14" height="14" viewBox="0 0 14 14" fill="none" xmlns="http://www.w3.org/2000/svg">
<path d="M13 8.33301C12.8232 8.33301 12.6537 8.40325 12.5286 8.52827C12.4036 8.65329 12.3334 8.82286 12.3334 8.99967V11.6663C12.3334 11.8432 12.2631 12.0127 12.1381 12.1377C12.0131 12.2628 11.8435 12.333 11.6667 12.333H2.33337C2.15656 12.333 1.98699 12.2628 1.86197 12.1377C1.73695 12.0127 1.66671 11.8432 1.66671 11.6663V8.99967C1.66671 8.82286 1.59647 8.65329 1.47145 8.52827C1.34642 8.40325 1.17685 8.33301 1.00004 8.33301C0.82323 8.33301 0.65366 8.40325 0.528636 8.52827C0.403612 8.65329 0.333374 8.82286 0.333374 8.99967V11.6663C0.333374 12.1968 0.544088 12.7055 0.919161 13.0806C1.29423 13.4556 1.80294 13.6663 2.33337 13.6663H11.6667C12.1971 13.6663 12.7058 13.4556 13.0809 13.0806C13.456 12.7055 13.6667 12.1968 13.6667 11.6663V8.99967C13.6667 8.82286 13.5965 8.65329 13.4714 8.52827C13.3464 8.40325 13.1769 8.33301 13 8.33301ZM6.52671 9.47301C6.59011 9.5337 6.66487 9.58128 6.74671 9.61301C6.82651 9.64828 6.91279 9.6665 7.00004 9.6665C7.08729 9.6665 7.17357 9.64828 7.25337 9.61301C7.33521 9.58128 7.40997 9.5337 7.47337 9.47301L10.14 6.80634C10.2656 6.68081 10.3361 6.51054 10.3361 6.33301C10.3361 6.15547 10.2656 5.98521 10.14 5.85967C10.0145 5.73414 9.84424 5.66361 9.66671 5.66361C9.48917 5.66361 9.31891 5.73414 9.19337 5.85967L7.66671 7.39301V0.999674C7.66671 0.822863 7.59647 0.653294 7.47145 0.52827C7.34642 0.403246 7.17685 0.333008 7.00004 0.333008C6.82323 0.333008 6.65366 0.403246 6.52864 0.52827C6.40361 0.653294 6.33337 0.822863 6.33337 0.999674V7.39301L4.80671 5.85967C4.74455 5.79752 4.67076 5.74821 4.58954 5.71457C4.50833 5.68093 4.42128 5.66361 4.33337 5.66361C4.24547 5.66361 4.15842 5.68093 4.07721 5.71457C3.99599 5.74821 3.9222 5.79752 3.86004 5.85967C3.79788 5.92183 3.74857 5.99563 3.71493 6.07684C3.68129 6.15806 3.66398 6.2451 3.66398 6.33301C3.66398 6.42091 3.68129 6.50796 3.71493 6.58917C3.74857 6.67039 3.79788 6.74418 3.86004 6.80634L6.52671 9.47301Z" fill="white"/>
</svg>
