<svg width="21" height="21" viewBox="0 0 21 21" fill="none" xmlns="http://www.w3.org/2000/svg">
<path d="M18.9 10.6604C18.7397 10.4779 18.6513 10.2433 18.6513 10.0004C18.6513 9.75747 18.7397 9.52287 18.9 9.34038L20.18 7.90038C20.3211 7.74305 20.4087 7.54509 20.4302 7.33489C20.4518 7.12469 20.4062 6.91307 20.3 6.73038L18.3 3.27038C18.1949 3.0879 18.0349 2.94326 17.8428 2.85707C17.6506 2.77088 17.4362 2.74754 17.23 2.79038L15.35 3.17038C15.1108 3.21981 14.8618 3.17997 14.6499 3.05838C14.438 2.93679 14.278 2.74187 14.2 2.51038L13.59 0.680383C13.5229 0.481762 13.3951 0.309248 13.2246 0.187225C13.0542 0.0652023 12.8497 -0.000157766 12.64 0.000383396H8.64002C8.42195 -0.0109986 8.20615 0.0493098 8.02558 0.172097C7.84501 0.294885 7.7096 0.473403 7.64002 0.680383L7.08002 2.51038C7.00202 2.74187 6.84199 2.93679 6.63013 3.05838C6.41827 3.17997 6.16924 3.21981 5.93002 3.17038L4.00002 2.79038C3.80457 2.76276 3.60532 2.79361 3.42737 2.87902C3.24941 2.96444 3.10072 3.10061 3.00002 3.27038L1.00002 6.73038C0.891178 6.91103 0.84224 7.12147 0.860201 7.33161C0.878161 7.54174 0.962101 7.74082 1.10002 7.90038L2.37002 9.34038C2.53034 9.52287 2.61875 9.75747 2.61875 10.0004C2.61875 10.2433 2.53034 10.4779 2.37002 10.6604L1.10002 12.1004C0.962101 12.2599 0.878161 12.459 0.860201 12.6692C0.84224 12.8793 0.891178 13.0897 1.00002 13.2704L3.00002 16.7304C3.10512 16.9129 3.26514 17.0575 3.45727 17.1437C3.6494 17.2299 3.86384 17.2532 4.07002 17.2104L5.95002 16.8304C6.18924 16.781 6.43827 16.8208 6.65013 16.9424C6.86199 17.064 7.02202 17.2589 7.10002 17.4904L7.71002 19.3204C7.7796 19.5274 7.91501 19.7059 8.09558 19.8287C8.27615 19.9515 8.49195 20.0118 8.71002 20.0004H12.71C12.9197 20.0009 13.1242 19.9356 13.2946 19.8135C13.4651 19.6915 13.5929 19.519 13.66 19.3204L14.27 17.4904C14.348 17.2589 14.508 17.064 14.7199 16.9424C14.9318 16.8208 15.1808 16.781 15.42 16.8304L17.3 17.2104C17.5062 17.2532 17.7206 17.2299 17.9128 17.1437C18.1049 17.0575 18.2649 16.9129 18.37 16.7304L20.37 13.2704C20.4762 13.0877 20.5218 12.8761 20.5002 12.6659C20.4787 12.4557 20.3911 12.2577 20.25 12.1004L18.9 10.6604ZM17.41 12.0004L18.21 12.9004L16.93 15.1204L15.75 14.8804C15.0298 14.7332 14.2806 14.8555 13.6446 15.2242C13.0086 15.5929 12.5302 16.1822 12.3 16.8804L11.92 18.0004H9.36002L9.00002 16.8604C8.76987 16.1622 8.2914 15.5729 7.65542 15.2042C7.01945 14.8355 6.27024 14.7132 5.55002 14.8604L4.37002 15.1004L3.07002 12.8904L3.87002 11.9904C4.36197 11.4404 4.63395 10.7283 4.63395 9.99038C4.63395 9.25245 4.36197 8.54041 3.87002 7.99038L3.07002 7.09038L4.35002 4.89038L5.53002 5.13038C6.25024 5.27761 6.99945 5.15526 7.63542 4.78658C8.2714 4.4179 8.74987 3.82854 8.98002 3.13038L9.36002 2.00038H11.92L12.3 3.14038C12.5302 3.83854 13.0086 4.4279 13.6446 4.79658C14.2806 5.16526 15.0298 5.28761 15.75 5.14038L16.93 4.90038L18.21 7.12038L17.41 8.02038C16.9236 8.56914 16.655 9.27707 16.655 10.0104C16.655 10.7437 16.9236 11.4516 17.41 12.0004ZM10.64 6.00038C9.84889 6.00038 9.07553 6.23498 8.41774 6.67451C7.75994 7.11403 7.24725 7.73874 6.9445 8.46965C6.64175 9.20055 6.56254 10.0048 6.71688 10.7807C6.87122 11.5567 7.25218 12.2694 7.81159 12.8288C8.371 13.3882 9.08373 13.7692 9.85966 13.9235C10.6356 14.0779 11.4398 13.9987 12.1708 13.6959C12.9017 13.3932 13.5264 12.8805 13.9659 12.2227C14.4054 11.5649 14.64 10.7915 14.64 10.0004C14.64 8.93952 14.2186 7.9221 13.4684 7.17196C12.7183 6.42181 11.7009 6.00038 10.64 6.00038ZM10.64 12.0004C10.2445 12.0004 9.85778 11.8831 9.52888 11.6633C9.19998 11.4436 8.94363 11.1312 8.79226 10.7657C8.64088 10.4003 8.60128 9.99817 8.67845 9.6102C8.75562 9.22224 8.9461 8.86588 9.2258 8.58617C9.50551 8.30647 9.86188 8.11598 10.2498 8.03881C10.6378 7.96164 11.0399 8.00125 11.4054 8.15262C11.7708 8.304 12.0832 8.56034 12.303 8.88924C12.5227 9.21814 12.64 9.60482 12.64 10.0004C12.64 10.5308 12.4293 11.0395 12.0542 11.4146C11.6792 11.7897 11.1705 12.0004 10.64 12.0004Z" fill="#999999"/>
</svg>
