<svg width="20" height="20" viewBox="0 0 20 20" fill="none" xmlns="http://www.w3.org/2000/svg">
<g clip-path="url(#clip0_128_6891)">
<path d="M14.9435 11.2273C15.1492 11.3449 15.443 11.5506 15.3843 11.962C15.2482 12.3861 14.9818 12.7564 14.623 13.0203C14.2642 13.2841 13.8313 13.428 13.386 13.4314C12.0636 13.4314 10.4474 12.4028 9.03681 10.9628C7.62627 9.5228 6.56836 7.93583 6.56836 6.61336C6.57181 6.168 6.71568 5.73508 6.9795 5.37626C7.24332 5.01745 7.61363 4.75103 8.03768 4.61495C8.44909 4.55618 8.6254 4.87945 8.77234 5.05578L9.77147 6.58397C9.87453 6.73664 9.91378 6.92356 9.88083 7.10479C9.84789 7.28602 9.74535 7.44717 9.59515 7.55378C9.15436 7.90644 8.74295 8.024 10.3592 9.64035C11.9754 11.2567 12.093 10.8453 12.4456 10.4044C12.5522 10.2542 12.7134 10.1517 12.8946 10.1187C13.0758 10.0858 13.2627 10.1251 13.4154 10.2281L14.9435 11.2273Z" stroke="#999999" stroke-width="1.5" stroke-miterlimit="10" stroke-linecap="round" stroke-linejoin="round"/>
<path d="M10.4135 1.6665C9.0395 1.66618 7.6889 2.02118 6.49332 2.69689C5.29774 3.37261 4.29798 4.34599 3.59151 5.52214C2.88503 6.69829 2.49595 8.03708 2.46219 9.40798C2.42842 10.7789 2.75113 12.1351 3.39886 13.3445L1.6665 18.3332L6.63637 16.6041C7.7013 17.1716 8.88171 17.4896 10.0881 17.5341C11.2945 17.5785 12.4952 17.3482 13.5991 16.8606C14.7031 16.3731 15.6813 15.6411 16.4596 14.7201C17.238 13.7991 17.796 12.7133 18.0914 11.545C18.3868 10.3768 18.4118 9.1567 18.1646 7.97736C17.9173 6.79802 17.4043 5.69036 16.6643 4.73834C15.9244 3.78633 14.977 3.01496 13.8939 2.48273C12.8109 1.95049 11.6207 1.67136 10.4135 1.6665V1.6665Z" stroke="#999999" stroke-width="2" stroke-miterlimit="10" stroke-linecap="round" stroke-linejoin="round"/>
</g>
<defs>
<clipPath id="clip0_128_6891">
<rect width="20" height="20" fill="white"/>
</clipPath>
</defs>
</svg>
