<svg width="24" height="24" viewBox="0 0 24 24" fill="none" xmlns="http://www.w3.org/2000/svg">
<path fill-rule="evenodd" clip-rule="evenodd" d="M12.2468 22C10.8918 22 9.57084 21.985 8.26384 21.958C6.59184 21.925 5.43484 20.841 5.24584 19.129C4.93084 16.289 4.39184 9.595 4.38684 9.528C4.35284 9.115 4.66084 8.753 5.07384 8.72C5.48084 8.709 5.84884 8.995 5.88184 9.407C5.88684 9.475 6.42484 16.146 6.73684 18.964C6.84384 19.937 7.36884 20.439 8.29484 20.458C10.7948 20.511 13.3458 20.514 16.0958 20.464C17.0798 20.445 17.6118 19.953 17.7218 18.957C18.0318 16.163 18.5718 9.475 18.5778 9.407C18.6108 8.995 18.9758 8.707 19.3848 8.72C19.7978 8.754 20.1058 9.115 20.0728 9.528C20.0668 9.596 19.5248 16.307 19.2128 19.122C19.0188 20.869 17.8648 21.932 16.1228 21.964C14.7898 21.987 13.5038 22 12.2468 22Z" fill="white"/>
<path fill-rule="evenodd" clip-rule="evenodd" d="M20.708 6.9893H3.75C3.336 6.9893 3 6.6533 3 6.2393C3 5.8253 3.336 5.4893 3.75 5.4893H20.708C21.122 5.4893 21.458 5.8253 21.458 6.2393C21.458 6.6533 21.122 6.9893 20.708 6.9893Z" fill="white"/>
<path fill-rule="evenodd" clip-rule="evenodd" d="M17.4406 6.9893C16.3026 6.9893 15.3146 6.1783 15.0906 5.0623L14.8476 3.8463C14.7966 3.6613 14.5856 3.5003 14.3456 3.5003H10.1126C9.87258 3.5003 9.66158 3.6613 9.60058 3.8923L9.36758 5.0623C9.14458 6.1783 8.15558 6.9893 7.01758 6.9893C6.60358 6.9893 6.26758 6.6533 6.26758 6.2393C6.26758 5.8253 6.60358 5.4893 7.01758 5.4893C7.44358 5.4893 7.81358 5.1853 7.89758 4.7673L8.14058 3.5513C8.38758 2.6193 9.19458 2.0003 10.1126 2.0003H14.3456C15.2636 2.0003 16.0706 2.6193 16.3076 3.5063L16.5616 4.7673C16.6446 5.1853 17.0146 5.4893 17.4406 5.4893C17.8546 5.4893 18.1906 5.8253 18.1906 6.2393C18.1906 6.6533 17.8546 6.9893 17.4406 6.9893Z" fill="white"/>
</svg>