<svg width="20" height="20" viewBox="0 0 20 20" fill="none" xmlns="http://www.w3.org/2000/svg">
<path d="M14.9997 15.8333H4.99967C4.33663 15.8333 3.70075 15.5699 3.23191 15.1011C2.76307 14.6323 2.49967 13.9964 2.49967 13.3333V6.66667C2.49967 6.44565 2.41188 6.23369 2.2556 6.07741C2.09932 5.92113 1.88735 5.83333 1.66634 5.83333C1.44533 5.83333 1.23337 5.92113 1.07709 6.07741C0.920805 6.23369 0.833008 6.44565 0.833008 6.66667V13.3333C0.833008 14.4384 1.27199 15.4982 2.0534 16.2796C2.44031 16.6665 2.89964 16.9734 3.40516 17.1828C3.91068 17.3922 4.4525 17.5 4.99967 17.5H14.9997C15.2207 17.5 15.4326 17.4122 15.5889 17.2559C15.7452 17.0996 15.833 16.8877 15.833 16.6667C15.833 16.4457 15.7452 16.2337 15.5889 16.0774C15.4326 15.9211 15.2207 15.8333 14.9997 15.8333ZM11.6663 9.16667H8.33301C8.11199 9.16667 7.90003 9.25446 7.74375 9.41074C7.58747 9.56702 7.49967 9.77899 7.49967 10C7.49967 10.221 7.58747 10.433 7.74375 10.5893C7.90003 10.7455 8.11199 10.8333 8.33301 10.8333H11.6663C11.8874 10.8333 12.0993 10.7455 12.2556 10.5893C12.4119 10.433 12.4997 10.221 12.4997 10C12.4997 9.77899 12.4119 9.56702 12.2556 9.41074C12.0993 9.25446 11.8874 9.16667 11.6663 9.16667ZM19.1663 8.28333C19.1577 8.20678 19.1409 8.13136 19.1163 8.05833V7.98333C19.0763 7.89765 19.0228 7.81889 18.958 7.75L13.958 2.75C13.8891 2.68518 13.8104 2.63173 13.7247 2.59167H13.6497C13.565 2.54312 13.4715 2.51195 13.3747 2.5H6.66634C6.0033 2.5 5.36741 2.76339 4.89857 3.23223C4.42973 3.70107 4.16634 4.33696 4.16634 5V11.6667C4.16634 12.3297 4.42973 12.9656 4.89857 13.4344C5.36741 13.9033 6.0033 14.1667 6.66634 14.1667H16.6663C17.3294 14.1667 17.9653 13.9033 18.4341 13.4344C18.9029 12.9656 19.1663 12.3297 19.1663 11.6667V8.33333C19.1663 8.33333 19.1663 8.33333 19.1663 8.28333ZM14.1663 5.34167L16.3247 7.5H14.9997C14.7787 7.5 14.5667 7.4122 14.4104 7.25592C14.2541 7.09964 14.1663 6.88768 14.1663 6.66667V5.34167ZM17.4997 11.6667C17.4997 11.8877 17.4119 12.0996 17.2556 12.2559C17.0993 12.4122 16.8874 12.5 16.6663 12.5H6.66634C6.44533 12.5 6.23337 12.4122 6.07709 12.2559C5.9208 12.0996 5.83301 11.8877 5.83301 11.6667V5C5.83301 4.77899 5.9208 4.56702 6.07709 4.41074C6.23337 4.25446 6.44533 4.16667 6.66634 4.16667H12.4997V6.66667C12.4997 7.32971 12.7631 7.96559 13.2319 8.43443C13.7007 8.90327 14.3366 9.16667 14.9997 9.16667H17.4997V11.6667ZM8.33301 7.5H9.99967C10.2207 7.5 10.4326 7.4122 10.5889 7.25592C10.7452 7.09964 10.833 6.88768 10.833 6.66667C10.833 6.44565 10.7452 6.23369 10.5889 6.07741C10.4326 5.92113 10.2207 5.83333 9.99967 5.83333H8.33301C8.11199 5.83333 7.90003 5.92113 7.74375 6.07741C7.58747 6.23369 7.49967 6.44565 7.49967 6.66667C7.49967 6.88768 7.58747 7.09964 7.74375 7.25592C7.90003 7.4122 8.11199 7.5 8.33301 7.5Z" fill="#3DBD78"/>
</svg>
