<svg width="14" height="14" viewBox="0 0 14 14" fill="none" xmlns="http://www.w3.org/2000/svg">
<path d="M13.0002 8.33334C12.8234 8.33334 12.6538 8.40358 12.5288 8.52861C12.4037 8.65363 12.3335 8.8232 12.3335 9.00001V11.6667C12.3335 11.8435 12.2633 12.0131 12.1382 12.1381C12.0132 12.2631 11.8436 12.3333 11.6668 12.3333H2.3335C2.15669 12.3333 1.98712 12.2631 1.86209 12.1381C1.73707 12.0131 1.66683 11.8435 1.66683 11.6667V9.00001C1.66683 8.8232 1.59659 8.65363 1.47157 8.52861C1.34654 8.40358 1.17697 8.33334 1.00016 8.33334C0.823352 8.33334 0.653782 8.40358 0.528758 8.52861C0.403734 8.65363 0.333496 8.8232 0.333496 9.00001V11.6667C0.333496 12.1971 0.54421 12.7058 0.919283 13.0809C1.29436 13.456 1.80306 13.6667 2.3335 13.6667H11.6668C12.1973 13.6667 12.706 13.456 13.081 13.0809C13.4561 12.7058 13.6668 12.1971 13.6668 11.6667V9.00001C13.6668 8.8232 13.5966 8.65363 13.4716 8.52861C13.3465 8.40358 13.177 8.33334 13.0002 8.33334ZM6.52683 9.47334C6.59023 9.53404 6.665 9.58161 6.74683 9.61334C6.82663 9.64861 6.91292 9.66683 7.00016 9.66683C7.08741 9.66683 7.1737 9.64861 7.2535 9.61334C7.33533 9.58161 7.41009 9.53404 7.4735 9.47334L10.1402 6.80668C10.2657 6.68114 10.3362 6.51088 10.3362 6.33334C10.3362 6.15581 10.2657 5.98555 10.1402 5.86001C10.0146 5.73447 9.84436 5.66395 9.66683 5.66395C9.4893 5.66395 9.31903 5.73447 9.1935 5.86001L7.66683 7.39334V1.00001C7.66683 0.823199 7.59659 0.65363 7.47157 0.528606C7.34654 0.403581 7.17697 0.333344 7.00016 0.333344C6.82335 0.333344 6.65378 0.403581 6.52876 0.528606C6.40373 0.65363 6.3335 0.823199 6.3335 1.00001V7.39334L4.80683 5.86001C4.74467 5.79785 4.67088 5.74854 4.58966 5.7149C4.50845 5.68126 4.4214 5.66395 4.3335 5.66395C4.24559 5.66395 4.15854 5.68126 4.07733 5.7149C3.99612 5.74854 3.92232 5.79785 3.86016 5.86001C3.798 5.92217 3.7487 5.99596 3.71506 6.07718C3.68142 6.15839 3.6641 6.24544 3.6641 6.33334C3.6641 6.42125 3.68142 6.5083 3.71506 6.58951C3.7487 6.67072 3.798 6.74452 3.86016 6.80668L6.52683 9.47334Z" fill="white"/>
</svg>