<svg width="14" height="14" viewBox="0 0 14 14" fill="none" xmlns="http://www.w3.org/2000/svg">
<path d="M4.04837 6.39997L6.48707 1C6.97215 1 7.43737 1.18964 7.78038 1.5272C8.12339 1.86477 8.31609 2.3226 8.31609 2.79999V5.19997H11.7668C11.9436 5.198 12.1187 5.23388 12.2799 5.3051C12.4412 5.37633 12.5848 5.48121 12.7008 5.61248C12.8168 5.74375 12.9024 5.89826 12.9516 6.06532C13.0009 6.23238 13.0127 6.40798 12.9862 6.57996L12.1448 11.9799C12.1007 12.2661 11.9531 12.5269 11.729 12.7143C11.5049 12.9018 11.2196 13.0032 10.9255 12.9999H4.04837M4.04837 6.39997V12.9999M4.04837 6.39997H2.21935C1.89596 6.39997 1.58581 6.52639 1.35714 6.75144C1.12847 6.97648 1 7.2817 1 7.59996V11.7999C1 12.1182 1.12847 12.4234 1.35714 12.6485C1.58581 12.8735 1.89596 12.9999 2.21935 12.9999H4.04837" stroke="#3DBD78" stroke-linecap="round" stroke-linejoin="round"/>
</svg>
