<svg width="16" height="16" viewBox="0 0 16 16" fill="none" xmlns="http://www.w3.org/2000/svg">
<path fill-rule="evenodd" clip-rule="evenodd" d="M11.2928 2C12.1868 2 13.0468 2.35333 13.6795 2.98733C14.3128 3.62 14.6668 4.47333 14.6668 5.36667V10.6333C14.6668 12.4933 13.1535 14 11.2928 14H4.70683C2.84616 14 1.3335 12.4933 1.3335 10.6333V5.36667C1.3335 3.50667 2.8395 2 4.70683 2H11.2928ZM12.3535 6.36L12.4068 6.30667C12.5662 6.11333 12.5662 5.83333 12.3995 5.64C12.3068 5.54067 12.1795 5.48 12.0468 5.46667C11.9068 5.45933 11.7735 5.50667 11.6728 5.6L8.66683 8C8.28016 8.32067 7.72616 8.32067 7.3335 8L4.3335 5.6C4.12616 5.44667 3.8395 5.46667 3.66683 5.64667C3.48683 5.82667 3.46683 6.11333 3.6195 6.31333L3.70683 6.4L6.74016 8.76667C7.1135 9.06 7.56616 9.22 8.04016 9.22C8.51283 9.22 8.9735 9.06 9.34616 8.76667L12.3535 6.36Z" fill="white"/>
</svg>
