<svg width="30" height="27" viewBox="0 0 30 27" fill="none" xmlns="http://www.w3.org/2000/svg">
<path d="M23.1008 13.2014C23.0483 13.0658 22.9694 12.9419 22.8688 12.8368L17.3448 7.31281C17.2418 7.2098 17.1195 7.12809 16.9849 7.07234C16.8504 7.01659 16.7061 6.9879 16.5604 6.9879C16.2662 6.9879 15.9841 7.10477 15.776 7.31281C15.673 7.41582 15.5913 7.53811 15.5356 7.6727C15.4798 7.80729 15.4511 7.95154 15.4511 8.09722C15.4511 8.39143 15.568 8.67359 15.776 8.88162L19.4219 12.5164L11.0364 12.5164C10.7434 12.5164 10.4624 12.6328 10.2552 12.84C10.048 13.0472 9.93164 13.3282 9.93164 13.6212C9.93164 13.9142 10.048 14.1952 10.2552 14.4024C10.4624 14.6096 10.7434 14.726 11.0364 14.726L19.4219 14.726L15.776 18.3608C15.6725 18.4635 15.5903 18.5857 15.5342 18.7203C15.4781 18.8549 15.4492 18.9994 15.4492 19.1452C15.4492 19.291 15.4781 19.4354 15.5342 19.5701C15.5903 19.7047 15.6725 19.8269 15.776 19.9296C15.8787 20.0332 16.0009 20.1153 16.1356 20.1714C16.2702 20.2275 16.4146 20.2564 16.5604 20.2564C16.7063 20.2564 16.8507 20.2275 16.9853 20.1714C17.1199 20.1153 17.2421 20.0332 17.3448 19.9296L22.8688 14.4056C22.9694 14.3005 23.0483 14.1766 23.1008 14.041C23.2113 13.7721 23.2113 13.4704 23.1008 13.2014Z" fill="white"/>
<rect x="0.606201" y="12.4976" width="11.2352" height="2.24705" rx="1.12352" fill="white"/>
</svg>
