<svg width="16" height="16" viewBox="0 0 16 16" fill="none" xmlns="http://www.w3.org/2000/svg">
<path d="M13.2666 8.44C13.1598 8.31834 13.1008 8.16194 13.1008 8C13.1008 7.83806 13.1598 7.68166 13.2666 7.56L14.12 6.6C14.214 6.49511 14.2724 6.36314 14.2868 6.22301C14.3011 6.08287 14.2708 5.94179 14.2 5.82L12.8666 3.51333C12.7966 3.39168 12.6899 3.29525 12.5618 3.23779C12.4337 3.18033 12.2908 3.16477 12.1533 3.19333L10.9 3.44667C10.7405 3.47962 10.5745 3.45306 10.4332 3.372C10.292 3.29094 10.1853 3.16099 10.1333 3.00667L9.72664 1.78667C9.68191 1.65425 9.59671 1.53924 9.48306 1.4579C9.36941 1.37655 9.23307 1.33297 9.0933 1.33333H6.42664C6.28126 1.32575 6.13739 1.36595 6.01701 1.44781C5.89663 1.52967 5.80636 1.64868 5.75997 1.78667L5.38664 3.00667C5.33464 3.16099 5.22795 3.29094 5.08671 3.372C4.94547 3.45306 4.77945 3.47962 4.61997 3.44667L3.3333 3.19333C3.20301 3.17492 3.07017 3.19548 2.95154 3.25243C2.8329 3.30937 2.73377 3.40015 2.66664 3.51333L1.3333 5.82C1.26074 5.94043 1.22812 6.08072 1.24009 6.22082C1.25207 6.36091 1.30803 6.49363 1.39997 6.6L2.24664 7.56C2.35352 7.68166 2.41246 7.83806 2.41246 8C2.41246 8.16194 2.35352 8.31834 2.24664 8.44L1.39997 9.4C1.30803 9.50637 1.25207 9.63909 1.24009 9.77919C1.22812 9.91928 1.26074 10.0596 1.3333 10.18L2.66664 12.4867C2.7367 12.6083 2.84338 12.7048 2.97147 12.7622C3.09956 12.8197 3.24252 12.8352 3.37997 12.8067L4.6333 12.5533C4.79278 12.5204 4.95881 12.5469 5.10005 12.628C5.24129 12.7091 5.34797 12.839 5.39997 12.9933L5.80664 14.2133C5.85302 14.3513 5.9433 14.4703 6.06368 14.5522C6.18406 14.634 6.32793 14.6743 6.4733 14.6667H9.13997C9.27973 14.667 9.41607 14.6235 9.52972 14.5421C9.64337 14.4608 9.72858 14.3457 9.7733 14.2133L10.18 12.9933C10.232 12.839 10.3387 12.7091 10.4799 12.628C10.6211 12.5469 10.7872 12.5204 10.9466 12.5533L12.2 12.8067C12.3374 12.8352 12.4804 12.8197 12.6085 12.7622C12.7366 12.7048 12.8432 12.6083 12.9133 12.4867L14.2466 10.18C14.3174 10.0582 14.3478 9.91713 14.3334 9.777C14.3191 9.63687 14.2607 9.50489 14.1666 9.4L13.2666 8.44ZM12.2733 9.33333L12.8066 9.93333L11.9533 11.4133L11.1666 11.2533C10.6865 11.1552 10.187 11.2367 9.76303 11.4825C9.33905 11.7283 9.02007 12.1212 8.86664 12.5867L8.6133 13.3333H6.90664L6.66664 12.5733C6.51321 12.1079 6.19423 11.715 5.77024 11.4692C5.34626 11.2234 4.84679 11.1419 4.36664 11.24L3.57997 11.4L2.7133 9.92667L3.24664 9.32667C3.57461 8.95999 3.75593 8.48529 3.75593 7.99333C3.75593 7.50138 3.57461 7.02668 3.24664 6.66L2.7133 6.06L3.56664 4.59333L4.3533 4.75333C4.83345 4.85148 5.33292 4.76992 5.75691 4.52413C6.18089 4.27835 6.49987 3.88544 6.6533 3.42L6.90664 2.66667H8.6133L8.86664 3.42667C9.02007 3.89211 9.33905 4.28501 9.76303 4.5308C10.187 4.77659 10.6865 4.85815 11.1666 4.76L11.9533 4.6L12.8066 6.08L12.2733 6.68C11.949 7.04584 11.77 7.51779 11.77 8.00667C11.77 8.49555 11.949 8.96749 12.2733 9.33333ZM7.75997 5.33333C7.23255 5.33333 6.71698 5.48973 6.27845 5.78275C5.83992 6.07577 5.49813 6.49224 5.29629 6.97951C5.09446 7.46678 5.04165 8.00296 5.14454 8.52024C5.24744 9.03752 5.50141 9.51268 5.87435 9.88562C6.24729 10.2586 6.72245 10.5125 7.23973 10.6154C7.75701 10.7183 8.29319 10.6655 8.78046 10.4637C9.26773 10.2618 9.68421 9.92005 9.97722 9.48152C10.2702 9.04299 10.4266 8.52742 10.4266 8C10.4266 7.29276 10.1457 6.61448 9.64559 6.11438C9.14549 5.61429 8.46722 5.33333 7.75997 5.33333ZM7.75997 9.33333C7.49626 9.33333 7.23848 9.25514 7.01921 9.10863C6.79994 8.96212 6.62905 8.75388 6.52813 8.51025C6.42722 8.26661 6.40081 7.99852 6.45226 7.73988C6.5037 7.48124 6.63069 7.24366 6.81716 7.05719C7.00363 6.87072 7.24121 6.74373 7.49985 6.69229C7.75849 6.64084 8.02658 6.66724 8.27022 6.76816C8.51385 6.86908 8.72209 7.03998 8.8686 7.25924C9.01511 7.47851 9.0933 7.73629 9.0933 8C9.0933 8.35362 8.95283 8.69276 8.70278 8.94281C8.45273 9.19286 8.11359 9.33333 7.75997 9.33333Z" fill="#999999"/>
</svg>
