<svg width="18" height="18" viewBox="0 0 18 18" fill="none" xmlns="http://www.w3.org/2000/svg">
<path d="M9.00038 0.666504C7.90603 0.666504 6.82239 0.882052 5.81135 1.30084C4.8003 1.71963 3.88164 2.33346 3.10782 3.10728C1.54502 4.67008 0.667043 6.7897 0.667043 8.99984C0.659758 10.9241 1.32604 12.7903 2.55038 14.2748L0.88371 15.9415C0.768079 16.0587 0.689748 16.2075 0.658603 16.3692C0.627458 16.5308 0.644894 16.6981 0.70871 16.8498C0.777925 16.9998 0.89013 17.1258 1.03108 17.2118C1.17203 17.2979 1.33538 17.3401 1.50038 17.3332H9.00038C11.2105 17.3332 13.3301 16.4552 14.8929 14.8924C16.4557 13.3296 17.3337 11.21 17.3337 8.99984C17.3337 6.7897 16.4557 4.67008 14.8929 3.10728C13.3301 1.54448 11.2105 0.666504 9.00038 0.666504ZM9.00038 15.6665H3.50871L4.28371 14.8915C4.43892 14.7354 4.52604 14.5242 4.52604 14.304C4.52604 14.0838 4.43892 13.8726 4.28371 13.7165C3.19253 12.6265 2.51302 11.192 2.36095 9.65716C2.20888 8.12238 2.59366 6.58234 3.44973 5.29944C4.3058 4.01654 5.5802 3.07014 7.05581 2.62148C8.53141 2.17283 10.1169 2.24967 11.5422 2.83893C12.9675 3.42819 14.1444 4.4934 14.8724 5.85308C15.6004 7.21276 15.8344 8.78279 15.5346 10.2957C15.2349 11.8086 14.4198 13.1707 13.2283 14.15C12.0368 15.1294 10.5427 15.6653 9.00038 15.6665ZM13.167 8.1665H4.83371C4.6127 8.1665 4.40073 8.2543 4.24445 8.41058C4.08817 8.56686 4.00038 8.77882 4.00038 8.99984C4.00038 9.22085 4.08817 9.43281 4.24445 9.58909C4.40073 9.74537 4.6127 9.83317 4.83371 9.83317H13.167C13.3881 9.83317 13.6 9.74537 13.7563 9.58909C13.9126 9.43281 14.0004 9.22085 14.0004 8.99984C14.0004 8.77882 13.9126 8.56686 13.7563 8.41058C13.6 8.2543 13.3881 8.1665 13.167 8.1665ZM11.5004 11.4998H6.50038C6.27936 11.4998 6.0674 11.5876 5.91112 11.7439C5.75484 11.9002 5.66704 12.1122 5.66704 12.3332C5.66704 12.5542 5.75484 12.7661 5.91112 12.9224C6.0674 13.0787 6.27936 13.1665 6.50038 13.1665H11.5004C11.7214 13.1665 11.9334 13.0787 12.0896 12.9224C12.2459 12.7661 12.3337 12.5542 12.3337 12.3332C12.3337 12.1122 12.2459 11.9002 12.0896 11.7439C11.9334 11.5876 11.7214 11.4998 11.5004 11.4998ZM6.50038 6.49984H11.5004C11.7214 6.49984 11.9334 6.41204 12.0896 6.25576C12.2459 6.09948 12.3337 5.88752 12.3337 5.6665C12.3337 5.44549 12.2459 5.23353 12.0896 5.07725C11.9334 4.92097 11.7214 4.83317 11.5004 4.83317H6.50038C6.27936 4.83317 6.0674 4.92097 5.91112 5.07725C5.75484 5.23353 5.66704 5.44549 5.66704 5.6665C5.66704 5.88752 5.75484 6.09948 5.91112 6.25576C6.0674 6.41204 6.27936 6.49984 6.50038 6.49984Z" fill="#999999"/>
</svg>
