<svg width="14" height="14" viewBox="0 0 14 14" fill="none" xmlns="http://www.w3.org/2000/svg">
<path d="M7.33366 0.333496C6.01512 0.333496 4.72619 0.724489 3.62986 1.45703C2.53353 2.18957 1.67905 3.23077 1.17447 4.44894C0.669881 5.66711 0.537859 7.00756 0.795093 8.30077C1.05233 9.59397 1.68727 10.7819 2.61962 11.7142C3.55197 12.6466 4.73985 13.2815 6.03306 13.5387C7.32627 13.796 8.66671 13.6639 9.88489 13.1594C11.1031 12.6548 12.1442 11.8003 12.8768 10.704C13.6093 9.60764 14.0003 8.31871 14.0003 7.00016C14.0003 6.12468 13.8279 5.25778 13.4929 4.44894C13.1578 3.6401 12.6668 2.90517 12.0477 2.28612C11.4286 1.66706 10.6937 1.176 9.88489 0.840966C9.07605 0.505935 8.20914 0.333496 7.33366 0.333496ZM7.33366 12.3335C6.27883 12.3335 5.24768 12.0207 4.37062 11.4347C3.49356 10.8486 2.80997 10.0157 2.4063 9.04114C2.00264 8.0666 1.89702 6.99425 2.10281 5.95968C2.30859 4.92512 2.81655 3.97481 3.56243 3.22893C4.30831 2.48305 5.25862 1.9751 6.29318 1.76931C7.32775 1.56352 8.4001 1.66914 9.37464 2.07281C10.3492 2.47647 11.1821 3.16006 11.7682 4.03712C12.3542 4.91418 12.667 5.94533 12.667 7.00016C12.667 8.41465 12.1051 9.77121 11.1049 10.7714C10.1047 11.7716 8.74815 12.3335 7.33366 12.3335ZM7.33366 3.00016C7.15685 3.00016 6.98728 3.0704 6.86226 3.19543C6.73723 3.32045 6.667 3.49002 6.667 3.66683V6.9535L5.75366 8.5335C5.66526 8.68732 5.64158 8.86997 5.68784 9.04125C5.7341 9.21253 5.8465 9.35842 6.00033 9.44683C6.15415 9.53524 6.3368 9.55891 6.50808 9.51265C6.67936 9.46639 6.82526 9.35399 6.91366 9.20016L7.91366 7.46683C7.9778 7.34632 8.0034 7.20902 7.987 7.0735L8.00033 7.00016V3.66683C8.00033 3.49002 7.93009 3.32045 7.80507 3.19543C7.68004 3.0704 7.51047 3.00016 7.33366 3.00016Z" fill="#999999"/>
</svg>
