<svg width="20" height="20" viewBox="0 0 20 20" fill="none" xmlns="http://www.w3.org/2000/svg">
<path d="M10.2502 10.1832C10.6948 9.79828 11.0515 9.32224 11.2959 8.78736C11.5403 8.25247 11.6668 7.67126 11.6668 7.08317C11.6668 5.9781 11.2278 4.91829 10.4464 4.13689C9.66504 3.35549 8.60523 2.9165 7.50016 2.9165C6.39509 2.9165 5.33529 3.35549 4.55388 4.13689C3.77248 4.91829 3.3335 5.9781 3.3335 7.08317C3.33349 7.67126 3.46 8.25247 3.70443 8.78736C3.94887 9.32224 4.30551 9.79828 4.75016 10.1832C3.58361 10.7114 2.59388 11.5644 1.89931 12.6403C1.20474 13.7161 0.834723 14.9693 0.833496 16.2498C0.833496 16.4709 0.921293 16.6828 1.07757 16.8391C1.23385 16.9954 1.44582 17.0832 1.66683 17.0832C1.88784 17.0832 2.0998 16.9954 2.25609 16.8391C2.41237 16.6828 2.50016 16.4709 2.50016 16.2498C2.50016 14.9238 3.02695 13.652 3.96463 12.7143C4.90231 11.7766 6.17408 11.2498 7.50016 11.2498C8.82624 11.2498 10.098 11.7766 11.0357 12.7143C11.9734 13.652 12.5002 14.9238 12.5002 16.2498C12.5002 16.4709 12.588 16.6828 12.7442 16.8391C12.9005 16.9954 13.1125 17.0832 13.3335 17.0832C13.5545 17.0832 13.7665 16.9954 13.9228 16.8391C14.079 16.6828 14.1668 16.4709 14.1668 16.2498C14.1656 14.9693 13.7956 13.7161 13.101 12.6403C12.4064 11.5644 11.4167 10.7114 10.2502 10.1832ZM7.50016 9.58317C7.00571 9.58317 6.52236 9.43655 6.11124 9.16185C5.70011 8.88714 5.37968 8.4967 5.19046 8.03988C5.00125 7.58306 4.95174 7.0804 5.0482 6.59545C5.14466 6.11049 5.38276 5.66504 5.7324 5.3154C6.08203 4.96577 6.52748 4.72767 7.01244 4.63121C7.49739 4.53474 8.00006 4.58425 8.45687 4.77347C8.91369 4.96269 9.30413 5.28312 9.57884 5.69425C9.85354 6.10537 10.0002 6.58872 10.0002 7.08317C10.0002 7.74621 9.73677 8.3821 9.26793 8.85094C8.79909 9.31978 8.1632 9.58317 7.50016 9.58317ZM15.6168 9.84984C16.1501 9.24928 16.4985 8.50738 16.62 7.71345C16.7415 6.91952 16.6309 6.1074 16.3016 5.37484C15.9723 4.64228 15.4383 4.0205 14.7639 3.58436C14.0895 3.14821 13.3033 2.91629 12.5002 2.9165C12.2791 2.9165 12.0672 3.0043 11.9109 3.16058C11.7546 3.31686 11.6668 3.52882 11.6668 3.74984C11.6668 3.97085 11.7546 4.18281 11.9109 4.33909C12.0672 4.49537 12.2791 4.58317 12.5002 4.58317C13.1632 4.58317 13.7991 4.84656 14.2679 5.3154C14.7368 5.78425 15.0002 6.42013 15.0002 7.08317C14.999 7.52087 14.8829 7.95059 14.6635 8.32936C14.4442 8.70812 14.1292 9.02266 13.7502 9.2415C13.6266 9.31277 13.5234 9.41456 13.4505 9.53712C13.3775 9.65968 13.3372 9.79892 13.3335 9.9415C13.33 10.083 13.3626 10.223 13.4282 10.3484C13.4938 10.4738 13.5903 10.5804 13.7085 10.6582L14.0335 10.8748L14.1418 10.9332C15.1463 11.4096 15.9938 12.1632 16.5843 13.1051C17.1749 14.047 17.484 15.1381 17.4752 16.2498C17.4752 16.4709 17.563 16.6828 17.7192 16.8391C17.8755 16.9954 18.0875 17.0832 18.3085 17.0832C18.5295 17.0832 18.7415 16.9954 18.8978 16.8391C19.054 16.6828 19.1418 16.4709 19.1418 16.2498C19.1486 14.971 18.8283 13.7117 18.2114 12.5916C17.5944 11.4714 16.7013 10.5276 15.6168 9.84984Z" fill="#999999"/>
</svg>
