<svg width="16" height="16" viewBox="0 0 16 16" fill="none" xmlns="http://www.w3.org/2000/svg">
<path d="M7.33336 1.33333C6.01481 1.33333 4.72588 1.72432 3.62956 2.45686C2.53323 3.18941 1.67874 4.2306 1.17416 5.44877C0.669576 6.66695 0.537553 8.00739 0.794788 9.3006C1.05202 10.5938 1.68696 11.7817 2.61931 12.714C3.55166 13.6464 4.73955 14.2813 6.03275 14.5386C7.32596 14.7958 8.66641 14.6638 9.88458 14.1592C11.1028 13.6546 12.1439 12.8001 12.8765 11.7038C13.609 10.6075 14 9.31854 14 8C14 7.12452 13.8276 6.25761 13.4926 5.44877C13.1575 4.63993 12.6665 3.90501 12.0474 3.28595C11.4283 2.66689 10.6934 2.17583 9.88458 1.8408C9.07574 1.50577 8.20884 1.33333 7.33336 1.33333ZM7.33336 13.3333C6.27852 13.3333 5.24738 13.0205 4.37032 12.4345C3.49325 11.8485 2.80967 11.0155 2.406 10.041C2.00233 9.06643 1.89671 7.99408 2.1025 6.95951C2.30829 5.92495 2.81624 4.97464 3.56212 4.22876C4.308 3.48288 5.25831 2.97493 6.29288 2.76914C7.32744 2.56335 8.3998 2.66897 9.37434 3.07264C10.3489 3.47631 11.1818 4.15989 11.7679 5.03695C12.3539 5.91402 12.6667 6.94516 12.6667 8C12.6667 9.41448 12.1048 10.771 11.1046 11.7712C10.1044 12.7714 8.74784 13.3333 7.33336 13.3333ZM7.33336 3.99999C7.15655 3.99999 6.98698 4.07023 6.86195 4.19526C6.73693 4.32028 6.66669 4.48985 6.66669 4.66666V7.61333L5.26669 8.42C5.13826 8.49277 5.03762 8.60611 4.98054 8.74225C4.92347 8.87838 4.91319 9.02961 4.95132 9.17222C4.98945 9.31482 5.07383 9.44074 5.19123 9.53022C5.30863 9.61971 5.45241 9.66769 5.60002 9.66666C5.71681 9.66747 5.83175 9.63758 5.93336 9.58L7.66669 8.58L7.72669 8.51999L7.83336 8.43333C7.85942 8.40033 7.88178 8.36455 7.90002 8.32666C7.92175 8.29087 7.93963 8.25288 7.95336 8.21333C7.97149 8.17094 7.98274 8.12593 7.98669 8.08L8.00002 8V4.66666C8.00002 4.48985 7.92979 4.32028 7.80476 4.19526C7.67974 4.07023 7.51017 3.99999 7.33336 3.99999Z" fill="#999999"/>
</svg>
