<svg width="12" height="12" viewBox="0 0 12 12" fill="none" xmlns="http://www.w3.org/2000/svg">
<path d="M6.23332 0.133331C5.11256 0.133331 4.01697 0.465676 3.08509 1.08834C2.15321 1.711 1.4269 2.59601 0.998002 3.63146C0.569106 4.66691 0.456887 5.80628 0.675536 6.90551C0.894186 8.00474 1.43388 9.01444 2.22638 9.80694C3.01888 10.5994 4.02858 11.1391 5.12781 11.3578C6.22703 11.5764 7.36641 11.4642 8.40186 11.0353C9.43731 10.6064 10.3223 9.88011 10.945 8.94823C11.5676 8.01635 11.9 6.92076 11.9 5.8C11.9 5.05584 11.7534 4.31897 11.4686 3.63146C11.1839 2.94395 10.7665 2.31926 10.2403 1.79306C9.71406 1.26686 9.08937 0.849457 8.40186 0.564681C7.71435 0.279904 6.97748 0.133331 6.23332 0.133331V0.133331ZM6.23332 10.3333C5.33671 10.3333 4.46024 10.0675 3.71473 9.56933C2.96923 9.0712 2.38818 8.36319 2.04507 7.53483C1.70195 6.70647 1.61217 5.79497 1.78709 4.91559C1.96201 4.03621 2.39377 3.22845 3.02777 2.59445C3.66177 1.96045 4.46953 1.52869 5.34891 1.35377C6.22829 1.17885 7.13979 1.26863 7.96815 1.61174C8.79651 1.95486 9.50452 2.53591 10.0026 3.28141C10.5008 4.02692 10.7667 4.90339 10.7667 5.8C10.7667 7.00231 10.289 8.15538 9.43887 9.00555C8.58871 9.85571 7.43563 10.3333 6.23332 10.3333V10.3333ZM6.23332 2.4C6.08303 2.4 5.9389 2.4597 5.83263 2.56597C5.72636 2.67224 5.66665 2.81638 5.66665 2.96666V5.47133L4.47665 6.157C4.36749 6.21886 4.28194 6.3152 4.23343 6.43091C4.18491 6.54663 4.17618 6.67517 4.20859 6.79639C4.241 6.9176 4.31272 7.02463 4.41251 7.10069C4.5123 7.17675 4.63452 7.21754 4.75999 7.21666C4.85925 7.21735 4.95696 7.19195 5.04332 7.143L6.51665 6.293L6.56765 6.242L6.65832 6.16833C6.68048 6.14028 6.69948 6.10987 6.71499 6.07766C6.73345 6.04724 6.74865 6.01495 6.76032 5.98133C6.77573 5.9453 6.7853 5.90704 6.78865 5.868C6.78865 5.868 6.79999 5.8 6.79999 5.8V2.96666C6.79999 2.81638 6.74028 2.67224 6.63401 2.56597C6.52774 2.4597 6.38361 2.4 6.23332 2.4Z" fill="#FF5855"/>
</svg>
