<svg width="20" height="20" viewBox="0 0 20 20" fill="none" xmlns="http://www.w3.org/2000/svg">
<path d="M17.6418 1.71644C17.0445 1.61355 16.4396 1.56059 15.8335 1.55811C13.7655 1.55641 11.7406 2.14942 10.0002 3.26644C8.25528 2.16409 6.23069 1.58563 4.16682 1.59978C3.56069 1.60226 2.95582 1.65522 2.35849 1.75811C2.16282 1.79184 1.98564 1.89432 1.85883 2.0471C1.73202 2.19988 1.66393 2.39292 1.66682 2.59144V12.5914C1.66503 12.7139 1.69026 12.8352 1.74069 12.9468C1.79113 13.0584 1.86554 13.1575 1.95863 13.2371C2.05172 13.3166 2.1612 13.3747 2.27928 13.4071C2.39736 13.4396 2.52115 13.4456 2.64182 13.4248C3.836 13.218 5.05949 13.2523 6.24021 13.5257C7.42093 13.799 8.53501 14.3059 9.51682 15.0164L9.61682 15.0748H9.70849C9.8009 15.1133 9.90003 15.1331 10.0002 15.1331C10.1003 15.1331 10.1994 15.1133 10.2918 15.0748H10.3835L10.4835 15.0164C11.4585 14.29 12.5693 13.7667 13.7503 13.4776C14.9312 13.1884 16.1582 13.1393 17.3585 13.3331C17.4792 13.3539 17.6029 13.3479 17.721 13.3155C17.8391 13.283 17.9486 13.225 18.0417 13.1454C18.1348 13.0658 18.2092 12.9667 18.2596 12.8551C18.31 12.7436 18.3353 12.6222 18.3335 12.4998V2.49978C18.3248 2.3099 18.2515 2.1287 18.1257 1.98622C17.9999 1.84375 17.8292 1.74856 17.6418 1.71644ZM9.16682 12.7914C7.62506 11.9803 5.90892 11.557 4.16682 11.5581C3.89182 11.5581 3.61682 11.5581 3.33349 11.5581V3.22478C3.61103 3.20878 3.88927 3.20878 4.16682 3.22478C5.94464 3.22281 7.68366 3.74452 9.16682 4.72478V12.7914ZM16.6668 11.5914C16.3835 11.5914 16.1085 11.5914 15.8335 11.5914C14.0914 11.5904 12.3752 12.0137 10.8335 12.8248V4.72478C12.3166 3.74452 14.0557 3.22281 15.8335 3.22478C16.111 3.20878 16.3893 3.20878 16.6668 3.22478V11.5914ZM17.6418 15.0498C17.0445 14.9469 16.4396 14.8939 15.8335 14.8914C13.7655 14.8897 11.7406 15.4828 10.0002 16.5998C8.25975 15.4828 6.23485 14.8897 4.16682 14.8914C3.56069 14.8939 2.95582 14.9469 2.35849 15.0498C2.25001 15.067 2.146 15.1055 2.05245 15.163C1.9589 15.2206 1.87765 15.2961 1.81337 15.3851C1.7491 15.4742 1.70306 15.5751 1.67791 15.682C1.65275 15.7889 1.64899 15.8997 1.66682 16.0081C1.70917 16.2245 1.83556 16.4153 2.01831 16.5387C2.20106 16.6621 2.42527 16.708 2.64182 16.6664C3.836 16.4597 5.05949 16.494 6.24021 16.7673C7.42093 17.0407 8.53501 17.5476 9.51682 18.2581C9.65795 18.3586 9.8269 18.4126 10.0002 18.4126C10.1734 18.4126 10.3424 18.3586 10.4835 18.2581C11.4653 17.5476 12.5794 17.0407 13.7601 16.7673C14.9408 16.494 16.1643 16.4597 17.3585 16.6664C17.575 16.708 17.7992 16.6621 17.982 16.5387C18.1647 16.4153 18.2911 16.2245 18.3335 16.0081C18.3513 15.8997 18.3475 15.7889 18.3224 15.682C18.2972 15.5751 18.2512 15.4742 18.1869 15.3851C18.1227 15.2961 18.0414 15.2206 17.9478 15.163C17.8543 15.1055 17.7503 15.067 17.6418 15.0498Z" fill="#999999"/>
</svg>
