<svg width="20" height="20" viewBox="0 0 20 20" fill="none" xmlns="http://www.w3.org/2000/svg">
<path fill-rule="evenodd" clip-rule="evenodd" d="M1.6665 5.30283C1.6665 3.43558 3.18021 1.92188 5.04746 1.92188H14.9522C16.8195 1.92188 18.3332 3.43558 18.3332 5.30283V15.2076C18.3332 17.0748 16.8195 18.5885 14.9522 18.5885H5.04746C3.18021 18.5885 1.6665 17.0748 1.6665 15.2076V5.30283ZM5.04746 3.35045C3.96919 3.35045 3.09508 4.22456 3.09508 5.30283V15.2076C3.09508 16.2859 3.96919 17.16 5.04746 17.16H14.9522C16.0305 17.16 16.9046 16.2859 16.9046 15.2076V5.30283C16.9046 4.22456 16.0305 3.35045 14.9522 3.35045H5.04746Z" fill="#999999"/>
<path fill-rule="evenodd" clip-rule="evenodd" d="M6.73479 0.833496C7.12928 0.833496 7.44908 1.15329 7.44908 1.54778V3.72465C7.44908 4.11914 7.12928 4.43894 6.73479 4.43894C6.3403 4.43894 6.02051 4.11914 6.02051 3.72465V1.54778C6.02051 1.15329 6.3403 0.833496 6.73479 0.833496Z" fill="#999999"/>
<path fill-rule="evenodd" clip-rule="evenodd" d="M13.2651 0.833496C13.6596 0.833496 13.9794 1.15329 13.9794 1.54778V3.72465C13.9794 4.11914 13.6596 4.43894 13.2651 4.43894C12.8706 4.43894 12.5508 4.11914 12.5508 3.72465V1.54778C12.5508 1.15329 12.8706 0.833496 13.2651 0.833496Z" fill="#999999"/>
<path fill-rule="evenodd" clip-rule="evenodd" d="M3.09508 9.16699C3.09508 12.0787 5.45548 14.4391 8.36719 14.4391H17.0747C17.4692 14.4391 17.789 14.7589 17.789 15.1534C17.789 15.5479 17.4692 15.8677 17.0747 15.8677H8.36719C4.66651 15.8677 1.6665 12.8677 1.6665 9.16699H3.09508Z" fill="#999999"/>
<path fill-rule="evenodd" clip-rule="evenodd" d="M5.47559 7.33001C5.47559 6.93552 5.79538 6.61572 6.18987 6.61572H6.66606C7.06055 6.61572 7.38035 6.93552 7.38035 7.33001C7.38035 7.7245 7.06055 8.04429 6.66606 8.04429H6.18987C5.79538 8.04429 5.47559 7.7245 5.47559 7.33001Z" fill="#999999"/>
<path fill-rule="evenodd" clip-rule="evenodd" d="M9.28564 7.33001C9.28564 6.93552 9.60544 6.61572 9.99993 6.61572H10.4761C10.8706 6.61572 11.1904 6.93552 11.1904 7.33001C11.1904 7.7245 10.8706 8.04429 10.4761 8.04429H9.99993C9.60544 8.04429 9.28564 7.7245 9.28564 7.33001Z" fill="#999999"/>
<path fill-rule="evenodd" clip-rule="evenodd" d="M13.0952 7.33001C13.0952 6.93552 13.415 6.61572 13.8095 6.61572H14.2857C14.6802 6.61572 15 6.93552 15 7.33001C15 7.7245 14.6802 8.04429 14.2857 8.04429H13.8095C13.415 8.04429 13.0952 7.7245 13.0952 7.33001Z" fill="#999999"/>
<path fill-rule="evenodd" clip-rule="evenodd" d="M5.47559 11.1396C5.47559 10.7451 5.79538 10.4253 6.18987 10.4253H6.66606C7.06055 10.4253 7.38035 10.7451 7.38035 11.1396C7.38035 11.5341 7.06055 11.8539 6.66606 11.8539H6.18987C5.79538 11.8539 5.47559 11.5341 5.47559 11.1396Z" fill="#999999"/>
<path fill-rule="evenodd" clip-rule="evenodd" d="M9.28564 11.1396C9.28564 10.7451 9.60544 10.4253 9.99993 10.4253H10.4761C10.8706 10.4253 11.1904 10.7451 11.1904 11.1396C11.1904 11.5341 10.8706 11.8539 10.4761 11.8539H9.99993C9.60544 11.8539 9.28564 11.5341 9.28564 11.1396Z" fill="#999999"/>
<path fill-rule="evenodd" clip-rule="evenodd" d="M13.0952 11.1396C13.0952 10.7451 13.415 10.4253 13.8095 10.4253H14.2857C14.6802 10.4253 15 10.7451 15 11.1396C15 11.5341 14.6802 11.8539 14.2857 11.8539H13.8095C13.415 11.8539 13.0952 11.5341 13.0952 11.1396Z" fill="#999999"/>
</svg>
