<svg width="24" height="24" viewBox="0 0 24 24" fill="none" xmlns="http://www.w3.org/2000/svg">
<circle cx="12" cy="12" r="12" fill="#3DBD78"/>
<path d="M13.6122 7.65996C13.2948 7.60133 13.0034 7.80386 12.9429 8.11364C12.8825 8.42343 13.0857 8.72589 13.3944 8.78652C14.3239 8.96773 15.0416 9.68723 15.2236 10.6199V10.6206C15.2754 10.8891 15.5117 11.0843 15.7839 11.0843C15.8204 11.0843 15.857 11.0809 15.8941 11.0743C16.2029 11.0123 16.406 10.7105 16.3456 10.4001C16.0741 9.00703 15.0018 7.9311 13.6122 7.65996Z" fill="white"/>
<path d="M13.5707 5.33861C13.422 5.3173 13.2726 5.36127 13.1537 5.45587C13.0316 5.5518 12.9552 5.69037 12.9386 5.8456C12.9034 6.15938 13.1298 6.44319 13.4432 6.4785C15.6043 6.71967 17.2841 8.40318 17.5271 10.571C17.5596 10.8615 17.8033 11.0807 18.0941 11.0807C18.116 11.0807 18.1372 11.0793 18.1591 11.0767C18.3112 11.06 18.4466 10.9847 18.5422 10.8648C18.6372 10.7449 18.6803 10.5957 18.6631 10.4431C18.3603 7.7383 16.2669 5.63908 13.5707 5.33861Z" fill="white"/>
<path fill-rule="evenodd" clip-rule="evenodd" d="M11.3545 12.6483C14.0139 15.3069 14.6172 12.2311 16.3104 13.9232C17.9429 15.5552 18.8811 15.8821 16.8128 17.9498C16.5538 18.158 14.9078 20.6628 9.12308 14.8798C3.33769 9.096 5.84107 7.4483 6.04932 7.1893C8.12259 5.1159 8.44392 6.05959 10.0763 7.69155C11.7696 9.38433 8.69512 9.98961 11.3545 12.6483Z" fill="white"/>
</svg>
