<svg width="15" height="13" viewBox="0 0 15 13" fill="none" xmlns="http://www.w3.org/2000/svg">
<path d="M12.2424 2.53038H11.3503L11.1273 1.83341C10.9827 1.42445 10.7145 1.07058 10.3598 0.820823C10.0052 0.571069 9.58162 0.437796 9.14786 0.439469H5.57938C5.14136 0.440288 4.71467 0.578642 4.35952 0.835003C4.00436 1.09136 3.73868 1.45279 3.59998 1.86826L3.37695 2.56523H2.48483C1.93029 2.56523 1.39846 2.78552 1.00633 3.17764C0.614213 3.56976 0.393921 4.10159 0.393921 4.65614V10.2319C0.393921 10.7864 0.614213 11.3183 1.00633 11.7104C1.39846 12.1025 1.93029 12.3228 2.48483 12.3228H12.2424C12.7969 12.3228 13.3288 12.1025 13.7209 11.7104C14.113 11.3183 14.3333 10.7864 14.3333 10.2319V4.65614C14.3379 4.37863 14.2873 4.10299 14.1843 3.84527C14.0813 3.58756 13.928 3.35293 13.7334 3.15506C13.5387 2.9572 13.3067 2.80006 13.0507 2.69281C12.7947 2.58556 12.5199 2.53034 12.2424 2.53038ZM12.9394 10.197C12.9394 10.3819 12.8659 10.5592 12.7352 10.6899C12.6045 10.8206 12.4273 10.894 12.2424 10.894H2.48483C2.29998 10.894 2.12271 10.8206 1.992 10.6899C1.86129 10.5592 1.78786 10.3819 1.78786 10.197V4.62129C1.78786 4.43644 1.86129 4.25916 1.992 4.12845C2.12271 3.99775 2.29998 3.92432 2.48483 3.92432H3.87877C4.03075 3.93225 4.18116 3.89022 4.30701 3.80464C4.43286 3.71906 4.52724 3.59464 4.57574 3.45038L4.9521 2.30735C4.99886 2.16891 5.08794 2.04868 5.20676 1.96363C5.32557 1.87858 5.46811 1.83303 5.61422 1.83341H9.18271C9.32882 1.83303 9.47136 1.87858 9.59018 1.96363C9.70899 2.04868 9.79807 2.16891 9.84483 2.30735L10.2212 3.45038C10.2659 3.58332 10.3497 3.69968 10.4616 3.78423C10.5735 3.86879 10.7084 3.91761 10.8485 3.92432H12.2424C12.4273 3.92432 12.6045 3.99775 12.7352 4.12845C12.8659 4.25916 12.9394 4.43644 12.9394 4.62129V10.197ZM7.36362 3.92432C6.81223 3.92432 6.27322 4.08782 5.81476 4.39416C5.35629 4.7005 4.99896 5.1359 4.78795 5.64532C4.57695 6.15474 4.52174 6.71529 4.62931 7.25608C4.73688 7.79688 5.0024 8.29363 5.39229 8.68352C5.78218 9.07342 6.27893 9.33894 6.81973 9.44651C7.36053 9.55408 7.92107 9.49887 8.43049 9.28786C8.93991 9.07685 9.37532 8.71952 9.68165 8.26106C9.98799 7.80259 10.1515 7.26359 10.1515 6.7122C10.1515 5.9728 9.85777 5.2637 9.33495 4.74087C8.81212 4.21804 8.10301 3.92432 7.36362 3.92432ZM7.36362 8.10613C7.08792 8.10613 6.81842 8.02438 6.58919 7.87121C6.35995 7.71805 6.18129 7.50034 6.07579 7.24563C5.97028 6.99092 5.94268 6.71065 5.99646 6.44025C6.05025 6.16985 6.18301 5.92148 6.37795 5.72653C6.5729 5.53159 6.82128 5.39883 7.09167 5.34504C7.36207 5.29125 7.64235 5.31886 7.89706 5.42436C8.15176 5.52987 8.36947 5.70853 8.52264 5.93776C8.6758 6.167 8.75756 6.4365 8.75756 6.7122C8.75756 7.08189 8.6107 7.43644 8.34928 7.69786C8.08787 7.95927 7.73331 8.10613 7.36362 8.10613Z" fill="#999999"/>
</svg>
