<svg width="18" height="18" viewBox="0 0 18 18" fill="none" xmlns="http://www.w3.org/2000/svg">
<path d="M4.83366 4.83317C4.66884 4.83317 4.50773 4.88204 4.37068 4.97361C4.23364 5.06518 4.12683 5.19533 4.06376 5.3476C4.00069 5.49987 3.98418 5.66743 4.01634 5.82908C4.04849 5.99073 4.12786 6.13922 4.2444 6.25576C4.36095 6.3723 4.50943 6.45167 4.67108 6.48382C4.83273 6.51598 5.00029 6.49948 5.15256 6.4364C5.30483 6.37333 5.43498 6.26652 5.52655 6.12948C5.61812 5.99244 5.66699 5.83132 5.66699 5.6665C5.66699 5.44549 5.5792 5.23353 5.42291 5.07725C5.26663 4.92097 5.05467 4.83317 4.83366 4.83317ZM4.83366 8.1665C4.66884 8.1665 4.50773 8.21538 4.37068 8.30695C4.23364 8.39851 4.12683 8.52866 4.06376 8.68093C4.00069 8.83321 3.98418 9.00076 4.01634 9.16241C4.04849 9.32406 4.12786 9.47255 4.2444 9.58909C4.36095 9.70564 4.50943 9.785 4.67108 9.81716C4.83273 9.84931 5.00029 9.83281 5.15256 9.76974C5.30483 9.70666 5.43498 9.59985 5.52655 9.46281C5.61812 9.32577 5.66699 9.16465 5.66699 8.99984C5.66699 8.77882 5.5792 8.56686 5.42291 8.41058C5.26663 8.2543 5.05467 8.1665 4.83366 8.1665ZM13.167 8.1665H8.16699C7.94598 8.1665 7.73402 8.2543 7.57774 8.41058C7.42146 8.56686 7.33366 8.77882 7.33366 8.99984C7.33366 9.22085 7.42146 9.43281 7.57774 9.58909C7.73402 9.74537 7.94598 9.83317 8.16699 9.83317H13.167C13.388 9.83317 13.6 9.74537 13.7562 9.58909C13.9125 9.43281 14.0003 9.22085 14.0003 8.99984C14.0003 8.77882 13.9125 8.56686 13.7562 8.41058C13.6 8.2543 13.388 8.1665 13.167 8.1665ZM13.167 4.83317H8.16699C7.94598 4.83317 7.73402 4.92097 7.57774 5.07725C7.42146 5.23353 7.33366 5.44549 7.33366 5.6665C7.33366 5.88752 7.42146 6.09948 7.57774 6.25576C7.73402 6.41204 7.94598 6.49984 8.16699 6.49984H13.167C13.388 6.49984 13.6 6.41204 13.7562 6.25576C13.9125 6.09948 14.0003 5.88752 14.0003 5.6665C14.0003 5.44549 13.9125 5.23353 13.7562 5.07725C13.6 4.92097 13.388 4.83317 13.167 4.83317ZM14.8337 0.666504H3.16699C2.50395 0.666504 1.86807 0.929896 1.39923 1.39874C0.930384 1.86758 0.666992 2.50346 0.666992 3.1665V11.4998C0.666992 12.1629 0.930384 12.7988 1.39923 13.2676C1.86807 13.7364 2.50395 13.9998 3.16699 13.9998H12.8253L15.9087 17.0915C15.9865 17.1687 16.0789 17.2298 16.1804 17.2713C16.2819 17.3128 16.3907 17.3338 16.5003 17.3332C16.6096 17.336 16.7181 17.3132 16.817 17.2665C16.9692 17.204 17.0994 17.0978 17.1914 16.9614C17.2833 16.825 17.3328 16.6644 17.3337 16.4998V3.1665C17.3337 2.50346 17.0703 1.86758 16.6014 1.39874C16.1326 0.929896 15.4967 0.666504 14.8337 0.666504ZM15.667 14.4915L13.7587 12.5748C13.6808 12.4976 13.5884 12.4365 13.4869 12.395C13.3854 12.3536 13.2767 12.3325 13.167 12.3332H3.16699C2.94598 12.3332 2.73402 12.2454 2.57774 12.0891C2.42146 11.9328 2.33366 11.7209 2.33366 11.4998V3.1665C2.33366 2.94549 2.42146 2.73353 2.57774 2.57725C2.73402 2.42097 2.94598 2.33317 3.16699 2.33317H14.8337C15.0547 2.33317 15.2666 2.42097 15.4229 2.57725C15.5792 2.73353 15.667 2.94549 15.667 3.1665V14.4915Z" fill="#3DBD78"/>
</svg>
