<svg width="15" height="15" viewBox="0 0 15 15" fill="none" xmlns="http://www.w3.org/2000/svg">
<path d="M3.57898 7.173H5.92948V7.7235H3.57898V7.173Z" fill="#F6CF47"/>
<path d="M3.57898 8.685H5.92948V9.237H3.57898V8.685Z" fill="#F6CF47"/>
<path d="M3.57898 10.2435H5.92948V10.7955H3.57898V10.2435Z" fill="#F6CF47"/>
<path d="M3.57898 11.8035H5.92948V12.3555H3.57898V11.8035Z" fill="#F6CF47"/>
<path d="M7.63208 4.1745H11.3896V4.7265H7.63208V4.1745Z" fill="#F6CF47"/>
<path d="M7.63208 5.988H11.3896V6.54H7.63208V5.988Z" fill="#F6CF47"/>
<path d="M7.63208 7.8H11.3896V8.352H7.63208V7.8Z" fill="#F6CF47"/>
<path d="M12.5325 13.4205V2.1255H10.2465V1.029H6.49052V2.1255V2.6775V4.461H3.18902V5.556H2.46902V13.4205H0.150024V13.9725H2.46902H6.49052H7.04252H8.22303H10.653H12.534H14.85V13.4205H12.5325ZM7.04252 1.5795H9.69602V2.124H7.04252V1.5795ZM3.73952 5.01H6.39302V5.5545H3.73952V5.01ZM3.01952 13.4205V6.1065H3.18902H6.49052V13.4205H3.01952ZM8.77353 13.4205V11.7795H10.101V13.4205H8.77353ZM10.6515 13.4205V11.229H8.22152V13.4205H7.04102V5.5545V2.676H10.245H11.979V13.4205H10.6515Z" fill="#F6CF47"/>
</svg>
