<svg width="20" height="20" viewBox="0 0 20 20" fill="none" xmlns="http://www.w3.org/2000/svg">
<path d="M17.4998 16.6665H16.6665V4.1665C16.6665 3.94549 16.5787 3.73353 16.4224 3.57725C16.2661 3.42097 16.0542 3.33317 15.8332 3.33317C15.6122 3.33317 15.4002 3.42097 15.2439 3.57725C15.0876 3.73353 14.9998 3.94549 14.9998 4.1665V16.6665H13.3332V10.8332C13.3332 10.6122 13.2454 10.4002 13.0891 10.2439C12.9328 10.0876 12.7209 9.99984 12.4998 9.99984C12.2788 9.99984 12.0669 10.0876 11.9106 10.2439C11.7543 10.4002 11.6665 10.6122 11.6665 10.8332V16.6665H9.99984V7.49984C9.99984 7.27882 9.91204 7.06686 9.75576 6.91058C9.59948 6.7543 9.38752 6.6665 9.1665 6.6665C8.94549 6.6665 8.73353 6.7543 8.57725 6.91058C8.42097 7.06686 8.33317 7.27882 8.33317 7.49984V16.6665H6.6665V14.1665C6.6665 13.9455 6.57871 13.7335 6.42243 13.5772C6.26615 13.421 6.05418 13.3332 5.83317 13.3332C5.61216 13.3332 5.4002 13.421 5.24392 13.5772C5.08764 13.7335 4.99984 13.9455 4.99984 14.1665V16.6665H3.33317V2.49984C3.33317 2.27882 3.24537 2.06686 3.08909 1.91058C2.93281 1.7543 2.72085 1.6665 2.49984 1.6665C2.27882 1.6665 2.06686 1.7543 1.91058 1.91058C1.7543 2.06686 1.6665 2.27882 1.6665 2.49984V17.4998C1.6665 17.7209 1.7543 17.9328 1.91058 18.0891C2.06686 18.2454 2.27882 18.3332 2.49984 18.3332H17.4998C17.7209 18.3332 17.9328 18.2454 18.0891 18.0891C18.2454 17.9328 18.3332 17.7209 18.3332 17.4998C18.3332 17.2788 18.2454 17.0669 18.0891 16.9106C17.9328 16.7543 17.7209 16.6665 17.4998 16.6665Z" fill="#999999"/>
</svg>
