<svg width="16" height="16" viewBox="0 0 16 16" fill="none" xmlns="http://www.w3.org/2000/svg">
<path fill-rule="evenodd" clip-rule="evenodd" d="M3.72847 4.95364L4.18772 12.4844C4.22334 13.0605 4.71098 13.524 5.31928 13.524H10.431C11.0263 13.524 11.5091 13.0796 11.5613 12.5177L12.2534 4.95253C10.9872 4.87154 9.29967 4.78264 7.99967 4.78264C6.69369 4.78264 4.99664 4.87236 3.72847 4.95364ZM13.3939 5.03053C13.5172 5.03951 13.6258 5.04761 13.7173 5.05454C13.8233 5.06256 13.9063 5.06902 13.9628 5.07346L14.0484 5.08027C14.3629 5.10581 14.6389 4.87154 14.6644 4.55699C14.69 4.24243 14.4557 3.96673 14.1411 3.94118L14.0524 3.93412C13.9949 3.9296 13.9107 3.92306 13.8036 3.91495C13.5894 3.89872 13.2833 3.87621 12.9149 3.85098C11.6258 3.76269 9.55473 3.63978 7.99967 3.63978C6.44461 3.63978 4.37352 3.76269 3.08446 3.85098C2.7161 3.8762 2.40995 3.89872 2.19573 3.91495C2.08861 3.92306 2.00446 3.9296 1.94697 3.93412L1.85865 3.94114C1.54409 3.96669 1.30937 4.24243 1.33491 4.55699C1.36045 4.87154 1.63616 5.10583 1.95071 5.08029M1.95071 5.08029L2.03658 5.07346C2.09304 5.06902 2.17609 5.06256 2.28204 5.05454C2.36929 5.04793 2.47206 5.04026 2.58826 5.03178L3.04701 12.5543C3.12067 13.7488 4.12272 14.6668 5.31928 14.6668H10.431C11.6009 14.6668 12.5915 13.7884 12.6994 12.6226L13.3939 5.03053" fill="#999999"/>
<path fill-rule="evenodd" clip-rule="evenodd" d="M6.93301 2.47636C6.82781 2.47636 6.74254 2.56163 6.74254 2.66683V3.88176C6.74254 4.19735 6.4867 4.45319 6.17111 4.45319C5.85552 4.45319 5.59968 4.19735 5.59968 3.88176V2.66683C5.59968 1.93045 6.19663 1.3335 6.93301 1.3335H9.06634C9.80271 1.3335 10.3997 1.93045 10.3997 2.66683V3.88176C10.3997 4.19735 10.1438 4.45319 9.82824 4.45319C9.51265 4.45319 9.25681 4.19735 9.25681 3.88176V2.66683C9.25681 2.56163 9.17153 2.47636 9.06634 2.47636H6.93301Z" fill="#999999"/>
<path fill-rule="evenodd" clip-rule="evenodd" d="M4.9902 3.88178C4.9902 3.56618 5.24604 3.31035 5.56163 3.31035L6.78067 3.31035C7.09626 3.31035 7.35209 3.56618 7.35209 3.88178C7.35209 4.19737 7.09626 4.45321 6.78067 4.45321H5.56163C5.24604 4.45321 4.9902 4.19737 4.9902 3.88178Z" fill="#999999"/>
<path fill-rule="evenodd" clip-rule="evenodd" d="M8.64727 3.88178C8.64727 3.56618 8.90311 3.31035 9.2187 3.31035H10.4377C10.7533 3.31035 11.0092 3.56618 11.0092 3.88178C11.0092 4.19737 10.7533 4.45321 10.4377 4.45321H9.2187C8.90311 4.45321 8.64727 4.19737 8.64727 3.88178Z" fill="#999999"/>
<path fill-rule="evenodd" clip-rule="evenodd" d="M7.99967 6.60508C8.31526 6.60508 8.5711 6.86092 8.5711 7.17651V11.1302C8.5711 11.4458 8.31526 11.7016 7.99967 11.7016C7.68408 11.7016 7.42825 11.4458 7.42825 11.1302V7.17651C7.42825 6.86092 7.68408 6.60508 7.99967 6.60508Z" fill="#999999"/>
<path fill-rule="evenodd" clip-rule="evenodd" d="M5.56163 7.264C5.87722 7.264 6.13305 7.51984 6.13305 7.83543V10.4712C6.13305 10.7868 5.87722 11.0426 5.56163 11.0426C5.24604 11.0426 4.9902 10.7868 4.9902 10.4712V7.83543C4.9902 7.51984 5.24604 7.264 5.56163 7.264Z" fill="#999999"/>
<path fill-rule="evenodd" clip-rule="evenodd" d="M10.4377 7.264C10.7533 7.264 11.0091 7.51984 11.0091 7.83543V10.4712C11.0091 10.7868 10.7533 11.0426 10.4377 11.0426C10.1221 11.0426 9.86629 10.7868 9.86629 10.4712V7.83543C9.86629 7.51984 10.1221 7.264 10.4377 7.264Z" fill="#999999"/>
</svg>
