<svg width="14" height="12" viewBox="0 0 14 12" fill="none" xmlns="http://www.w3.org/2000/svg">
<path d="M13.6134 5.73317C12.2667 2.6065 9.73338 0.666504 7.00004 0.666504C4.26671 0.666504 1.73338 2.6065 0.386711 5.73317C0.350002 5.81728 0.331055 5.90806 0.331055 5.99984C0.331055 6.09161 0.350002 6.18239 0.386711 6.2665C1.73338 9.39317 4.26671 11.3332 7.00004 11.3332C9.73338 11.3332 12.2667 9.39317 13.6134 6.2665C13.6501 6.18239 13.669 6.09161 13.669 5.99984C13.669 5.90806 13.6501 5.81728 13.6134 5.73317ZM7.00004 9.99984C4.88671 9.99984 2.88671 8.47317 1.73338 5.99984C2.88671 3.5265 4.88671 1.99984 7.00004 1.99984C9.11338 1.99984 11.1134 3.5265 12.2667 5.99984C11.1134 8.47317 9.11338 9.99984 7.00004 9.99984ZM7.00004 3.33317C6.47263 3.33317 5.95706 3.48957 5.51852 3.78258C5.07999 4.0756 4.7382 4.49208 4.53637 4.97935C4.33453 5.46662 4.28172 6.0028 4.38462 6.52008C4.48751 7.03736 4.74149 7.51252 5.11443 7.88546C5.48737 8.2584 5.96252 8.51237 6.4798 8.61526C6.99709 8.71816 7.53326 8.66535 8.02053 8.46352C8.5078 8.26168 8.92428 7.91989 9.2173 7.48136C9.51031 7.04283 9.66671 6.52725 9.66671 5.99984C9.66671 5.29259 9.38576 4.61432 8.88566 4.11422C8.38557 3.61412 7.70729 3.33317 7.00004 3.33317ZM7.00004 7.33317C6.73634 7.33317 6.47855 7.25497 6.25928 7.10846C6.04002 6.96195 5.86912 6.75372 5.76821 6.51008C5.66729 6.26645 5.64088 5.99836 5.69233 5.73972C5.74378 5.48108 5.87077 5.2435 6.05724 5.05703C6.24371 4.87056 6.48128 4.74357 6.73992 4.69212C6.99857 4.64068 7.26665 4.66708 7.51029 4.768C7.75392 4.86891 7.96216 5.03981 8.10867 5.25908C8.25518 5.47834 8.33338 5.73613 8.33338 5.99984C8.33338 6.35346 8.1929 6.6926 7.94285 6.94265C7.6928 7.19269 7.35367 7.33317 7.00004 7.33317Z" fill="#999999"/>
</svg>
