<svg width="30" height="27" viewBox="0 0 30 27" fill="none" xmlns="http://www.w3.org/2000/svg">
<path d="M7.32324 14.041C7.37582 14.1766 7.45467 14.3005 7.55525 14.4056L13.0792 19.9296C13.1822 20.0326 13.3045 20.1143 13.4391 20.1701C13.5737 20.2258 13.718 20.2545 13.8636 20.2545C14.1579 20.2545 14.44 20.1376 14.6481 19.9296C14.7511 19.8266 14.8328 19.7043 14.8885 19.5697C14.9443 19.4351 14.973 19.2909 14.973 19.1452C14.973 18.851 14.8561 18.5688 14.6481 18.3608L11.0022 14.726L19.3876 14.726C19.6806 14.726 19.9617 14.6096 20.1688 14.4024C20.376 14.1952 20.4924 13.9142 20.4924 13.6212C20.4924 13.3282 20.376 13.0472 20.1688 12.84C19.9617 12.6328 19.6806 12.5164 19.3876 12.5164L11.0022 12.5164L14.648 8.88162C14.7516 8.77892 14.8338 8.65673 14.8899 8.5221C14.946 8.38747 14.9748 8.24306 14.9748 8.09722C14.9748 7.95137 14.946 7.80697 14.8899 7.67234C14.8338 7.53771 14.7516 7.41552 14.648 7.31281C14.5453 7.20926 14.4232 7.12707 14.2885 7.07098C14.1539 7.01489 14.0095 6.98601 13.8636 6.98601C13.7178 6.98601 13.5734 7.01489 13.4388 7.07098C13.3041 7.12707 13.1819 7.20926 13.0792 7.31281L7.55525 12.8368C7.45467 12.9419 7.37582 13.0658 7.32324 13.2014C7.21274 13.4704 7.21274 13.7721 7.32324 14.041Z" fill="white"/>
<rect x="29.8179" y="14.7448" width="11.2352" height="2.24705" rx="1.12352" transform="rotate(180 29.8179 14.7448)" fill="white"/>
</svg>
