<svg width="16" height="16" viewBox="0 0 16 16" fill="none" xmlns="http://www.w3.org/2000/svg">
<path d="M8.00002 7.19999C8.26373 7.19999 8.52151 7.12179 8.74078 6.97529C8.96005 6.82878 9.13094 6.62054 9.23186 6.3769C9.33278 6.13327 9.35918 5.86518 9.30773 5.60654C9.25629 5.3479 9.1293 5.11032 8.94283 4.92385C8.75636 4.73738 8.51878 4.61039 8.26014 4.55895C8.0015 4.5075 7.73341 4.5339 7.48978 4.63482C7.24614 4.73574 7.0379 4.90663 6.89139 5.1259C6.74489 5.34516 6.66669 5.60295 6.66669 5.86666C6.66669 6.22028 6.80716 6.55942 7.05721 6.80947C7.30726 7.05952 7.6464 7.19999 8.00002 7.19999ZM7.52669 11.8067C7.58866 11.8691 7.6624 11.9187 7.74364 11.9526C7.82487 11.9864 7.91201 12.0039 8.00002 12.0039C8.08803 12.0039 8.17517 11.9864 8.2564 11.9526C8.33764 11.9187 8.41138 11.8691 8.47335 11.8067L11.2 9.07333C11.8333 8.44035 12.2647 7.63378 12.4395 6.75563C12.6144 5.87748 12.5249 4.9672 12.1823 4.13992C11.8398 3.31264 11.2596 2.60553 10.5151 2.10803C9.77069 1.61053 8.89541 1.34499 8.00002 1.34499C7.10463 1.34499 6.22935 1.61053 5.48489 2.10803C4.74044 2.60553 4.16024 3.31264 3.8177 4.13992C3.47516 4.9672 3.38565 5.87748 3.56051 6.75563C3.73536 7.63378 4.16672 8.44035 4.80002 9.07333L7.52669 11.8067ZM4.82002 5.55999C4.86557 5.08467 5.0167 4.62552 5.26237 4.21607C5.50804 3.80662 5.84205 3.4572 6.24002 3.19333C6.76282 2.85006 7.3746 2.66716 8.00002 2.66716C8.62544 2.66716 9.23722 2.85006 9.76002 3.19333C10.1553 3.45629 10.4875 3.80359 10.7325 4.21025C10.9776 4.6169 11.1295 5.07281 11.1773 5.54518C11.2251 6.01755 11.1676 6.49465 11.009 6.94216C10.8504 7.38968 10.5946 7.79648 10.26 8.13333L8.00002 10.3933L5.74002 8.13333C5.40503 7.79975 5.14864 7.39568 4.98949 6.95053C4.83034 6.50537 4.77245 6.03034 4.82002 5.55999ZM12.6667 13.3333H3.33335C3.15654 13.3333 2.98697 13.4036 2.86195 13.5286C2.73693 13.6536 2.66669 13.8232 2.66669 14C2.66669 14.1768 2.73693 14.3464 2.86195 14.4714C2.98697 14.5964 3.15654 14.6667 3.33335 14.6667H12.6667C12.8435 14.6667 13.0131 14.5964 13.1381 14.4714C13.2631 14.3464 13.3334 14.1768 13.3334 14C13.3334 13.8232 13.2631 13.6536 13.1381 13.5286C13.0131 13.4036 12.8435 13.3333 12.6667 13.3333Z" fill="#999999"/>
</svg>
