<svg width="135" height="67" viewBox="0 0 135 67" fill="none" xmlns="http://www.w3.org/2000/svg">
<path d="M48.4888 38.4566V25.9164C48.4888 23.034 49.6338 20.2696 51.672 18.2315C53.7102 16.1933 56.4745 15.0482 59.357 15.0482C62.2394 15.0482 65.0037 16.1933 67.0419 18.2315C69.0801 20.2696 70.2251 23.034 70.2251 25.9164V27.5843C70.2251 28.0277 70.049 28.453 69.7354 28.7666C69.4218 29.0801 68.9966 29.2563 68.5531 29.2563C68.1097 29.2563 67.6844 29.0801 67.3708 28.7666C67.0572 28.453 66.8811 28.0277 66.8811 27.5843V25.9164C66.8811 23.9209 66.0884 22.0071 64.6773 20.5961C63.2663 19.185 61.3525 18.3923 59.357 18.3923C57.3614 18.3923 55.4476 19.185 54.0366 20.5961C52.6255 22.0071 51.8328 23.9209 51.8328 25.9164V38.4566" fill="#35B36F"/>
<path d="M72.7331 38.4566H45.9807C43.2104 38.4566 40.9646 40.7024 40.9646 43.4727V60.193C40.9646 62.9633 43.2104 65.2091 45.9807 65.2091H72.7331C75.5034 65.2091 77.7492 62.9633 77.7492 60.193V43.4727C77.7492 40.7024 75.5034 38.4566 72.7331 38.4566Z" fill="#FFCF26"/>
<path d="M61.0289 54.3409C61.0289 54.7844 60.8527 55.2097 60.5391 55.5232C60.2256 55.8368 59.8003 56.0129 59.3568 56.0129C58.9134 56.0129 58.4881 55.8368 58.1745 55.5232C57.861 55.2097 57.6848 54.7844 57.6848 54.3409V49.3248C57.6848 48.8814 57.861 48.4561 58.1745 48.1425C58.4881 47.829 58.9134 47.6528 59.3568 47.6528C59.8003 47.6528 60.2256 47.829 60.5391 48.1425C60.8527 48.4561 61.0289 48.8814 61.0289 49.3248V54.3409Z" fill="#3DBD78"/>
<path opacity="0.15" d="M45.9807 38.4566C44.6503 38.4566 43.3745 38.9851 42.4338 39.9258C41.4931 40.8665 40.9646 42.1424 40.9646 43.4727V60.193C40.9646 61.5233 41.4931 62.7992 42.4338 63.7399C43.3745 64.6806 44.6503 65.2091 45.9807 65.2091H59.3569V38.4566H45.9807Z" fill="#000064"/>
<path d="M122.533 20.6777C122.751 19.6114 124.275 19.6114 124.493 20.6777L125.33 24.7747C125.41 25.1672 125.717 25.474 126.11 25.5542L130.207 26.3916C131.273 26.6096 131.273 28.1331 130.207 28.3511L126.11 29.1885C125.717 29.2687 125.41 29.5755 125.33 29.968L124.493 34.065C124.275 35.1313 122.751 35.1313 122.533 34.065L121.696 29.968C121.616 29.5755 121.309 29.2687 120.916 29.1885L116.819 28.3511C115.753 28.1331 115.753 26.6096 116.819 26.3916L120.916 25.5542C121.309 25.474 121.616 25.1672 121.696 24.7747L122.533 20.6777Z" fill="#FFC747"/>
<path d="M12.0389 4.79346C12.2569 3.72713 13.7805 3.72712 13.9984 4.79346L15.0957 10.1621C15.176 10.5546 15.4827 10.8614 15.8752 10.9416L21.2439 12.0389C22.3102 12.2569 22.3102 13.7805 21.2439 13.9984L15.8752 15.0957C15.4827 15.176 15.176 15.4827 15.0957 15.8752L13.9984 21.2439C13.7805 22.3102 12.2569 22.3102 12.0389 21.2439L10.9416 15.8752C10.8614 15.4827 10.5546 15.176 10.1621 15.0957L4.79346 13.9984C3.72713 13.7805 3.72712 12.2569 4.79346 12.0389L10.1621 10.9416C10.5546 10.8614 10.8614 10.5546 10.9416 10.1621L12.0389 4.79346Z" fill="#2CB3A5"/>
<rect x="97.5823" y="13.3762" width="9.19615" height="9.19615" transform="rotate(31.3518 97.5823 13.3762)" fill="#F6A447"/>
<rect x="89.6887" y="41.3145" width="5.45717" height="5.45717" transform="rotate(-30 89.6887 41.3145)" fill="#ED706E"/>
</svg>
