<svg width="11" height="11" viewBox="0 0 11 11" fill="none" xmlns="http://www.w3.org/2000/svg">
<path d="M10.0794 4.81571H6.13199V0.868344C6.13199 0.693859 6.06268 0.526521 5.9393 0.403142C5.81592 0.279763 5.64858 0.210449 5.4741 0.210449C5.29961 0.210449 5.13227 0.279763 5.00889 0.403142C4.88551 0.526521 4.8162 0.693859 4.8162 0.868344V4.81571H0.868832C0.694348 4.81571 0.52701 4.88503 0.403631 5.00841C0.280251 5.13178 0.210938 5.29912 0.210938 5.47361C0.210938 5.64809 0.280251 5.81543 0.403631 5.93881C0.52701 6.06219 0.694348 6.1315 0.868832 6.1315H4.8162V10.0789C4.8162 10.2534 4.88551 10.4207 5.00889 10.5441C5.13227 10.6675 5.29961 10.7368 5.4741 10.7368C5.64858 10.7368 5.81592 10.6675 5.9393 10.5441C6.06268 10.4207 6.13199 10.2534 6.13199 10.0789V6.1315H10.0794C10.2538 6.1315 10.4212 6.06219 10.5446 5.93881C10.6679 5.81543 10.7373 5.64809 10.7373 5.47361C10.7373 5.29912 10.6679 5.13178 10.5446 5.00841C10.4212 4.88503 10.2538 4.81571 10.0794 4.81571Z" fill="white"/>
</svg>
