<svg width="20" height="20" viewBox="0 0 20 20" fill="none" xmlns="http://www.w3.org/2000/svg">
<path d="M9.40817 12.7415C9.37234 12.7811 9.33894 12.8228 9.30817 12.8665C9.27664 12.913 9.25141 12.9634 9.23317 13.0165C9.20915 13.0637 9.1923 13.1143 9.18317 13.1665C9.17908 13.222 9.17908 13.2777 9.18317 13.3332C9.18036 13.4425 9.20319 13.5509 9.24984 13.6498C9.28727 13.7533 9.34698 13.8472 9.42475 13.9249C9.50251 14.0027 9.59643 14.0624 9.69984 14.0998C9.79959 14.1439 9.90745 14.1667 10.0165 14.1667C10.1256 14.1667 10.2334 14.1439 10.3332 14.0998C10.4366 14.0624 10.5305 14.0027 10.6083 13.9249C10.686 13.8472 10.7457 13.7533 10.7832 13.6498C10.8202 13.5485 10.8372 13.441 10.8332 13.3332C10.8338 13.2235 10.8128 13.1148 10.7713 13.0132C10.7298 12.9117 10.6687 12.8194 10.5915 12.7415C10.514 12.6634 10.4219 12.6014 10.3203 12.5591C10.2188 12.5168 10.1099 12.495 9.99984 12.495C9.88983 12.495 9.78091 12.5168 9.67936 12.5591C9.57781 12.6014 9.48564 12.6634 9.40817 12.7415ZM9.99984 1.6665C8.35166 1.6665 6.7405 2.15525 5.37009 3.07092C3.99968 3.9866 2.93158 5.28809 2.30084 6.81081C1.67011 8.33353 1.50509 10.0091 1.82663 11.6256C2.14817 13.2421 2.94185 14.727 4.10728 15.8924C5.27272 17.0578 6.75758 17.8515 8.37409 18.173C9.9906 18.4946 11.6662 18.3296 13.1889 17.6988C14.7116 17.0681 16.0131 16 16.9288 14.6296C17.8444 13.2592 18.3332 11.648 18.3332 9.99984C18.3332 8.90549 18.1176 7.82186 17.6988 6.81081C17.28 5.79976 16.6662 4.8811 15.8924 4.10728C15.1186 3.33346 14.1999 2.71963 13.1889 2.30084C12.1778 1.88205 11.0942 1.6665 9.99984 1.6665ZM9.99984 16.6665C8.6813 16.6665 7.39237 16.2755 6.29604 15.543C5.19971 14.8104 4.34523 13.7692 3.84064 12.5511C3.33606 11.3329 3.20404 9.99244 3.46127 8.69924C3.71851 7.40603 4.35345 6.21814 5.2858 5.28579C6.21815 4.35344 7.40603 3.7185 8.69924 3.46127C9.99245 3.20403 11.3329 3.33606 12.5511 3.84064C13.7692 4.34522 14.8104 5.19971 15.543 6.29604C16.2755 7.39236 16.6665 8.6813 16.6665 9.99984C16.6665 11.7679 15.9641 13.4636 14.7139 14.7139C13.4636 15.9641 11.768 16.6665 9.99984 16.6665ZM9.99984 5.83317C9.56073 5.83289 9.12929 5.94827 8.74893 6.16771C8.36858 6.38714 8.05273 6.70289 7.83317 7.08317C7.77288 7.17802 7.73239 7.28408 7.71415 7.39498C7.69591 7.50588 7.70029 7.61933 7.72703 7.72849C7.75377 7.83766 7.80231 7.94028 7.86974 8.0302C7.93717 8.12012 8.0221 8.19546 8.1194 8.25171C8.2167 8.30795 8.32438 8.34393 8.43595 8.35749C8.54752 8.37104 8.66068 8.36188 8.76862 8.33057C8.87656 8.29925 8.97705 8.24643 9.06405 8.17527C9.15104 8.10411 9.22275 8.01609 9.27484 7.9165C9.34826 7.78933 9.45398 7.68382 9.5813 7.61065C9.70861 7.53748 9.853 7.49925 9.99984 7.49984C10.2209 7.49984 10.4328 7.58764 10.5891 7.74392C10.7454 7.9002 10.8332 8.11216 10.8332 8.33317C10.8332 8.55418 10.7454 8.76615 10.5891 8.92243C10.4328 9.07871 10.2209 9.1665 9.99984 9.1665C9.77883 9.1665 9.56687 9.2543 9.41059 9.41058C9.25431 9.56686 9.16651 9.77882 9.16651 9.99984V10.8332C9.16651 11.0542 9.25431 11.2661 9.41059 11.4224C9.56687 11.5787 9.77883 11.6665 9.99984 11.6665C10.2209 11.6665 10.4328 11.5787 10.5891 11.4224C10.7454 11.2661 10.8332 11.0542 10.8332 10.8332V10.6832C11.3843 10.4832 11.8476 10.0959 12.1421 9.58889C12.4367 9.08193 12.5436 8.48758 12.4443 7.90975C12.3451 7.33191 12.0458 6.80735 11.599 6.42777C11.1522 6.04818 10.5861 5.83772 9.99984 5.83317Z" fill="#999999"/>
</svg>
