<svg width="20" height="20" viewBox="0 0 20 20" fill="none" xmlns="http://www.w3.org/2000/svg">
<path d="M14.3369 10.3571H15.262C15.4706 10.3385 15.6661 10.2457 15.8141 10.095C15.9622 9.94426 16.0533 9.74524 16.0716 9.5329V7.60982C16.0533 7.39747 15.9622 7.19846 15.8141 7.04773C15.6661 6.89701 15.4706 6.80421 15.262 6.78564H14.3369M6.08744 6.78564H4.73823C4.52966 6.80421 4.33419 6.89701 4.18614 7.04773C4.0381 7.19846 3.94695 7.39747 3.92871 7.60982V9.5329C3.94695 9.74524 4.0381 9.94426 4.18614 10.095C4.33419 10.2457 4.52966 10.3385 4.73823 10.3571H6.41125" stroke="#999999" stroke-miterlimit="10" stroke-linecap="round" stroke-linejoin="round"/>
<path d="M8.125 12.6786C6.90948 11.9461 6.25 10.3802 6.25 8.56168V6.03598C6.25 3.40925 8.26724 2.5 9.97414 2.5C11.681 2.5 13.75 3.40925 13.75 6.03598V10.0771C13.75 11.0874 12.7155 11.8451 11.9397 11.8451" stroke="#999999" stroke-miterlimit="10" stroke-linecap="round" stroke-linejoin="round"/>
<path d="M8.125 12.6784L8.09322 12.888C8.09322 13.4004 8.19491 14.169 5.3983 14.6815C4.69203 14.8079 4.03913 15.1435 3.52292 15.6455C3.00672 16.1474 2.6506 16.793 2.5 17.4998H17.5C17.3336 16.7919 16.966 16.1483 16.4422 15.6477C15.9184 15.1471 15.2611 14.8114 14.5508 14.6815C11.8305 14.169 11.9068 13.4004 11.9068 12.888V11.6069" stroke="#999999" stroke-miterlimit="10" stroke-linecap="round" stroke-linejoin="round"/>
<path d="M11.6071 11.8749C11.6071 11.6617 11.5436 11.4573 11.4306 11.3067C11.3176 11.156 11.1643 11.0713 11.0045 11.0713H10.6027C10.4428 11.0713 10.2895 11.156 10.1765 11.3067C10.0635 11.4573 10 11.6617 10 11.8749C10 12.088 10.0635 12.2924 10.1765 12.4431C10.2895 12.5938 10.4428 12.6784 10.6027 12.6784H11.0045C11.1643 12.6784 11.3176 12.5938 11.4306 12.4431C11.5436 12.2924 11.6071 12.088 11.6071 11.8749Z" stroke="#999999" stroke-miterlimit="10" stroke-linecap="round" stroke-linejoin="round"/>
<path d="M7.38793 14.3489L9.97414 17.5002L12.6121 14.3489M6.25 6.65987C9.35345 6.65987 9.35345 4.64307 11.4224 4.64307C13.4914 4.64307 13.75 6.40777 13.75 6.40777" stroke="#999999" stroke-miterlimit="10" stroke-linecap="round" stroke-linejoin="round"/>
</svg>
