<svg width="14" height="14" viewBox="0 0 14 14" fill="none" xmlns="http://www.w3.org/2000/svg">
<path d="M2.3335 10.9996H5.16016C5.2479 11.0001 5.33488 10.9833 5.4161 10.9501C5.49733 10.917 5.5712 10.8681 5.6335 10.8063L10.2468 6.1863L12.1402 4.33297C12.2026 4.27099 12.2522 4.19726 12.2861 4.11602C12.3199 4.03478 12.3374 3.94764 12.3374 3.85963C12.3374 3.77163 12.3199 3.68449 12.2861 3.60325C12.2522 3.52201 12.2026 3.44828 12.1402 3.3863L9.3135 0.5263C9.25152 0.463815 9.17779 0.414219 9.09655 0.380373C9.01531 0.346527 8.92817 0.329102 8.84016 0.329102C8.75216 0.329102 8.66502 0.346527 8.58378 0.380373C8.50254 0.414219 8.42881 0.463815 8.36683 0.5263L6.48683 2.41297L1.86016 7.03297C1.79838 7.09526 1.74949 7.16914 1.71632 7.25036C1.68314 7.33159 1.66632 7.41856 1.66683 7.5063V10.333C1.66683 10.5098 1.73707 10.6793 1.86209 10.8044C1.98712 10.9294 2.15669 10.9996 2.3335 10.9996ZM8.84016 1.93963L10.7268 3.8263L9.78016 4.77297L7.8935 2.8863L8.84016 1.93963ZM3.00016 7.77963L6.9535 3.8263L8.84016 5.71297L4.88683 9.6663H3.00016V7.77963ZM13.0002 12.333H1.00016C0.823352 12.333 0.653782 12.4032 0.528758 12.5282C0.403734 12.6533 0.333496 12.8228 0.333496 12.9996C0.333496 13.1764 0.403734 13.346 0.528758 13.471C0.653782 13.5961 0.823352 13.6663 1.00016 13.6663H13.0002C13.177 13.6663 13.3465 13.5961 13.4716 13.471C13.5966 13.346 13.6668 13.1764 13.6668 12.9996C13.6668 12.8228 13.5966 12.6533 13.4716 12.5282C13.3465 12.4032 13.177 12.333 13.0002 12.333Z" fill="#999999"/>
</svg>
