<svg width="14" height="14" viewBox="0 0 14 14" fill="none" xmlns="http://www.w3.org/2000/svg">
<path d="M13.2733 4.75976C13.2733 4.75976 13.2733 4.75976 13.2733 4.72642C12.8036 3.44391 11.9513 2.33661 10.8317 1.55433C9.71204 0.772054 8.37916 0.352539 7.01333 0.352539C5.6475 0.352539 4.31462 0.772054 3.195 1.55433C2.07539 2.33661 1.22307 3.44391 0.753331 4.72642C0.753331 4.72642 0.753331 4.72642 0.753331 4.75976C0.228748 6.20702 0.228748 7.79249 0.753331 9.23976C0.753331 9.23976 0.753331 9.23976 0.753331 9.27309C1.22307 10.5556 2.07539 11.6629 3.195 12.4452C4.31462 13.2275 5.6475 13.647 7.01333 13.647C8.37916 13.647 9.71204 13.2275 10.8317 12.4452C11.9513 11.6629 12.8036 10.5556 13.2733 9.27309C13.2733 9.27309 13.2733 9.27309 13.2733 9.23976C13.7979 7.79249 13.7979 6.20702 13.2733 4.75976ZM1.84 8.33309C1.60882 7.45923 1.60882 6.54028 1.84 5.66642H3.08C2.97335 6.55211 2.97335 7.4474 3.08 8.33309H1.84ZM2.38666 9.66642H3.32C3.47648 10.261 3.70014 10.8358 3.98666 11.3798C3.33286 10.9344 2.78633 10.3491 2.38666 9.66642ZM3.32 4.33309H2.38666C2.78058 3.65248 3.32013 3.0674 3.96666 2.61976C3.68703 3.16459 3.47009 3.73937 3.32 4.33309ZM6.33333 12.1331C5.51451 11.5322 4.93943 10.6566 4.71333 9.66642H6.33333V12.1331ZM6.33333 8.33309H4.42666C4.30226 7.44856 4.30226 6.55096 4.42666 5.66642H6.33333V8.33309ZM6.33333 4.33309H4.71333C4.93943 3.34294 5.51451 2.4673 6.33333 1.86642V4.33309ZM11.6133 4.33309H10.68C10.5235 3.73853 10.2999 3.16372 10.0133 2.61976C10.6671 3.06514 11.2137 3.65038 11.6133 4.33309ZM7.66666 1.86642C8.48549 2.4673 9.06057 3.34294 9.28666 4.33309H7.66666V1.86642ZM7.66666 12.1331V9.66642H9.28666C9.06057 10.6566 8.48549 11.5322 7.66666 12.1331ZM9.57333 8.33309H7.66666V5.66642H9.57333C9.69774 6.55096 9.69774 7.44856 9.57333 8.33309ZM10.0333 11.3798C10.3199 10.8358 10.5435 10.261 10.7 9.66642H11.6333C11.2337 10.3491 10.6871 10.9344 10.0333 11.3798ZM12.16 8.33309H10.92C10.9742 7.89073 11.0009 7.44543 11 6.99976C11.0007 6.55409 10.974 6.1088 10.92 5.66642H12.16C12.3912 6.54028 12.3912 7.45923 12.16 8.33309Z" fill="#999999"/>
</svg>
