<svg width="12" height="12" viewBox="0 0 12 12" fill="none" xmlns="http://www.w3.org/2000/svg">
<path d="M10.6667 5.33366H6.66669V1.33366C6.66669 1.15685 6.59645 0.987279 6.47142 0.862254C6.3464 0.73723 6.17683 0.666992 6.00002 0.666992C5.82321 0.666992 5.65364 0.73723 5.52862 0.862254C5.40359 0.987279 5.33335 1.15685 5.33335 1.33366V5.33366H1.33335C1.15654 5.33366 0.986974 5.4039 0.861949 5.52892C0.736925 5.65395 0.666687 5.82351 0.666687 6.00033C0.666687 6.17714 0.736925 6.34671 0.861949 6.47173C0.986974 6.59675 1.15654 6.66699 1.33335 6.66699H5.33335V10.667C5.33335 10.8438 5.40359 11.0134 5.52862 11.1384C5.65364 11.2634 5.82321 11.3337 6.00002 11.3337C6.17683 11.3337 6.3464 11.2634 6.47142 11.1384C6.59645 11.0134 6.66669 10.8438 6.66669 10.667V6.66699H10.6667C10.8435 6.66699 11.0131 6.59675 11.1381 6.47173C11.2631 6.34671 11.3334 6.17714 11.3334 6.00033C11.3334 5.82351 11.2631 5.65395 11.1381 5.52892C11.0131 5.4039 10.8435 5.33366 10.6667 5.33366Z" fill="white"/>
</svg>
